<svg width="204" height="29" viewBox="0 0 204 29" fill="none" xmlns="http://www.w3.org/2000/svg">
<g clip-path="url(#clip0_2337_8453)">
<path d="M48.6621 4.91211L49.0749 11.0823H48.6621C48.1126 9.2341 47.3307 7.90623 46.3132 7.09301C45.2958 6.27979 44.0749 5.87603 42.6504 5.87603C41.4557 5.87603 40.3772 6.18312 39.4121 6.79445C38.4469 7.40578 37.6882 8.38108 37.1359 9.72033C36.5836 11.0596 36.3074 12.723 36.3074 14.7134C36.3074 16.3569 36.569 17.7786 37.0894 18.9842C37.6126 20.1898 38.3975 21.1139 39.444 21.7565C40.4935 22.3991 41.6882 22.7204 43.0342 22.7204C44.2028 22.7204 45.2318 22.4674 46.1272 21.9641C47.0196 21.4608 48.0022 20.4571 49.0749 18.9586L49.4876 19.2259C48.5865 20.8409 47.5312 22.0238 46.3278 22.7744C45.1243 23.5251 43.694 23.8976 42.04 23.8976C39.0574 23.8976 36.7493 22.783 35.1126 20.5509C33.8917 18.8903 33.2812 16.9369 33.2812 14.6878C33.2812 12.8765 33.6824 11.2131 34.4876 9.69473C35.2929 8.17635 36.4004 7.00202 37.8132 6.16606C39.2231 5.33293 40.7667 4.91495 42.4382 4.91495C43.7376 4.91495 45.0225 5.23626 46.2871 5.87887C46.6592 6.07507 46.9237 6.17459 47.0836 6.17459C47.3219 6.17459 47.5312 6.08928 47.7086 5.92152C47.9382 5.67983 48.101 5.34715 48.1999 4.9178H48.665L48.6621 4.91211Z" fill="white"/>
<path d="M56.0185 13.7455H64.379V8.55061C64.379 7.62365 64.3209 7.01232 64.2075 6.7166C64.1203 6.49482 63.9342 6.30146 63.6493 6.14223C63.2685 5.92898 62.8674 5.82093 62.443 5.82093H61.8063V5.32617H69.504V5.82093H68.8674C68.4429 5.82093 68.0389 5.92329 67.661 6.12802C67.379 6.27019 67.1842 6.48629 67.0825 6.77631C66.9807 7.06634 66.9284 7.65777 66.9284 8.55061V20.2626C66.9284 21.1811 66.9866 21.7896 67.0999 22.0824C67.1871 22.3071 67.3703 22.4976 67.6435 22.6568C68.0331 22.87 68.44 22.9781 68.8645 22.9781H69.5011V23.4729H61.8034V22.9781H62.44C63.1755 22.9781 63.7104 22.7592 64.0447 22.3213C64.2656 22.0369 64.3761 21.3488 64.3761 20.2598V14.7322H56.0156V20.2598C56.0156 21.1782 56.0738 21.7867 56.1871 22.0796C56.2743 22.3042 56.4604 22.4947 56.7453 22.6539C57.1261 22.8672 57.5273 22.9753 57.9517 22.9753H58.6028V23.47H50.8906V22.9753H51.5273C52.2714 22.9753 52.8092 22.7563 53.1464 22.3184C53.3587 22.0341 53.4662 21.346 53.4662 20.2569V8.55061C53.4662 7.62365 53.4081 7.01232 53.2947 6.7166C53.2075 6.49482 53.0243 6.30146 52.7511 6.14223C52.3616 5.92898 51.9546 5.82093 51.5302 5.82093H50.8935V5.32617H58.6057V5.82093H57.9546C57.5302 5.82093 57.1261 5.92329 56.7482 6.12802C56.4749 6.27019 56.2831 6.48629 56.1784 6.77631C56.0709 7.06634 56.0185 7.65777 56.0185 8.55061V13.7455Z" fill="white"/>
<path d="M75.7374 6.31568V13.4896H79.6938C80.7199 13.4896 81.406 13.3332 81.7519 13.0205C82.2112 12.611 82.4699 11.8859 82.5223 10.8509H83.0135V17.169H82.5223C82.3973 16.2847 82.2752 15.7189 82.1502 15.4686C81.9903 15.1559 81.7287 14.9113 81.3682 14.7322C81.0048 14.5531 80.4467 14.4649 79.6967 14.4649H75.7403V20.4475C75.7403 21.2493 75.7752 21.7384 75.8478 21.9118C75.9176 22.0853 76.0426 22.2246 76.2199 22.327C76.3973 22.4293 76.7316 22.4805 77.2287 22.4805H80.281C81.2984 22.4805 82.0368 22.4094 82.4961 22.2672C82.9554 22.1251 83.3973 21.8436 83.8246 21.4227C84.374 20.8683 84.935 20.0352 85.5106 18.9205H86.0426L84.4903 23.4729H70.6211V22.9781H71.2577C71.6821 22.9781 72.0862 22.8757 72.4641 22.671C72.7461 22.5288 72.9409 22.3127 73.0426 22.0284C73.1444 21.7441 73.1967 21.1583 73.1967 20.274V8.48521C73.1967 7.33362 73.0804 6.62561 72.8507 6.35549C72.531 5.99722 72.0019 5.82093 71.2577 5.82093H70.6211V5.32617H84.4903L84.6879 9.30127H84.1705C83.9845 8.34588 83.7781 7.69189 83.5542 7.33362C83.3275 6.9782 82.9932 6.70523 82.5513 6.51756C82.1967 6.38392 81.5746 6.31568 80.6792 6.31568H75.7432H75.7374Z" fill="white"/>
<path d="M92.2227 6.31479V13.4489H95.5017C96.2546 13.4489 96.8041 13.2812 97.1529 12.9456C97.5017 12.6101 97.7343 11.9476 97.8506 10.9581H98.3418V17.1027H97.8506C97.8418 16.3975 97.7517 15.88 97.5773 15.5502C97.4058 15.2204 97.1645 14.973 96.8593 14.8081C96.5541 14.6432 96.1006 14.5607 95.4988 14.5607H92.2197V20.2646C92.2197 21.183 92.2779 21.7915 92.3913 22.0844C92.4785 22.309 92.6645 22.4995 92.9494 22.6587C93.3389 22.872 93.7459 22.9801 94.1703 22.9801H94.8215V23.4748H87.0977V22.9801H87.7343C88.4785 22.9801 89.0163 22.7611 89.3535 22.3232C89.5657 22.0389 89.6732 21.3508 89.6732 20.2617V8.53834C89.6732 7.61992 89.6151 7.01143 89.5017 6.71856C89.4145 6.49677 89.2314 6.30342 88.9581 6.14419C88.5773 5.93093 88.1703 5.82288 87.7372 5.82288H87.1006V5.32812H100.493L100.665 9.31744H100.199C99.9698 8.4701 99.7023 7.84739 99.3971 7.44931C99.0918 7.05124 98.7168 6.76405 98.2692 6.58491C97.8215 6.40578 97.1296 6.31763 96.1907 6.31763H92.2227V6.31479Z" fill="white"/>
<path d="M104.94 11.8433V11.2149C105.85 10.6718 106.472 10.1628 106.797 9.68799C107.027 9.34962 107.143 8.94301 107.143 8.471C107.143 8.19519 107.094 7.99047 106.998 7.85398C106.89 7.72034 106.777 7.6521 106.652 7.6521C106.553 7.6521 106.425 7.68338 106.268 7.74593C106.039 7.82555 105.847 7.86536 105.698 7.86536C105.344 7.86536 105.03 7.73172 104.757 7.46443C104.483 7.19715 104.344 6.86163 104.344 6.46071C104.344 6.01429 104.48 5.66739 104.757 5.41717C105.129 5.07881 105.57 4.9082 106.085 4.9082C106.678 4.9082 107.21 5.16127 107.684 5.66455C108.158 6.16784 108.393 6.79623 108.393 7.54405C108.393 8.59611 108.001 9.55719 107.213 10.4216C106.69 10.9931 105.934 11.4651 104.943 11.8405L104.94 11.8433Z" fill="white"/>
<path d="M121.579 5.10938V11.3876H121.088C120.928 10.182 120.643 9.2238 120.233 8.5101C119.82 7.7964 119.236 7.23056 118.474 6.80974C117.713 6.39176 116.925 6.18134 116.111 6.18134C115.189 6.18134 114.431 6.46568 113.829 7.03152C113.227 7.59736 112.928 8.24282 112.928 8.96505C112.928 9.51951 113.117 10.0228 113.498 10.4777C114.047 11.1459 115.352 12.0388 117.413 13.1562C119.094 14.0661 120.242 14.7656 120.858 15.2518C121.474 15.7381 121.945 16.3124 122.28 16.9721C122.611 17.6318 122.777 18.3227 122.777 19.0478C122.777 20.4212 122.248 21.6069 121.189 22.6021C120.131 23.5973 118.771 24.0949 117.108 24.0949C116.585 24.0949 116.094 24.0551 115.634 23.9754C115.361 23.9299 114.791 23.7679 113.928 23.4864C113.064 23.2049 112.518 23.0655 112.288 23.0655C112.059 23.0655 111.893 23.1338 111.765 23.2674C111.637 23.4011 111.541 23.6769 111.48 24.0977H110.989V17.8735H111.48C111.71 19.1758 112.021 20.151 112.41 20.7993C112.8 21.4476 113.396 21.985 114.195 22.4116C114.995 22.8409 115.876 23.0542 116.829 23.0542C117.934 23.0542 118.809 22.7585 119.451 22.1699C120.094 21.5813 120.413 20.8846 120.413 20.0828C120.413 19.6364 120.291 19.1871 120.047 18.7322C119.803 18.2772 119.425 17.8536 118.913 17.4612C118.567 17.1939 117.626 16.6252 116.088 15.7551C114.547 14.885 113.454 14.1912 112.803 13.6737C112.152 13.1562 111.66 12.5847 111.323 11.9592C110.986 11.3336 110.82 10.6483 110.82 9.89769C110.82 8.5954 111.314 7.47225 112.306 6.53108C113.297 5.58991 114.559 5.11791 116.088 5.11791C117.044 5.11791 118.056 5.35391 119.126 5.82592C119.62 6.05055 119.971 6.16144 120.175 6.16144C120.405 6.16144 120.594 6.0932 120.739 5.95387C120.884 5.81454 121.003 5.53589 121.091 5.11791H121.582L121.579 5.10938Z" fill="white"/>
<path d="M136.59 6.51401V13.6481H139.869C140.622 13.6481 141.171 13.4804 141.52 13.1449C141.869 12.8093 142.101 12.1468 142.218 11.1573H142.709V17.3019H142.218C142.209 16.5968 142.119 16.0793 141.944 15.7494C141.773 15.4196 141.532 15.1722 141.226 15.0073C140.921 14.8424 140.468 14.7599 139.866 14.7599H136.587V20.4638C136.587 21.3822 136.645 21.9907 136.758 22.2836C136.846 22.5082 137.032 22.6987 137.317 22.858C137.706 23.0712 138.113 23.1793 138.538 23.1793H139.189V23.674H131.465V23.1793H132.101C132.846 23.1793 133.383 22.9603 133.721 22.5224C133.933 22.2381 134.04 21.55 134.04 20.461V8.73756C134.04 7.81914 133.982 7.21065 133.869 6.91777C133.782 6.69599 133.599 6.50264 133.325 6.3434C132.944 6.13015 132.538 6.0221 132.104 6.0221H131.468V5.52734H144.86L145.032 9.51666H144.567C144.337 8.66932 144.069 8.04661 143.764 7.64853C143.459 7.25045 143.084 6.96327 142.636 6.78413C142.189 6.605 141.497 6.51685 140.558 6.51685H136.59V6.51401Z" fill="white"/>
<path d="M156.083 5.10831C158.42 5.10831 160.444 6.00399 162.156 7.7925C163.868 9.58101 164.723 11.8159 164.723 14.4916C164.723 17.1672 163.859 19.5387 162.135 21.3584C160.409 23.1782 158.321 24.0881 155.871 24.0881C153.42 24.0881 151.313 23.201 149.627 21.4238C147.941 19.6467 147.098 17.3492 147.098 14.5286C147.098 11.7079 148.071 9.29382 150.016 7.47403C151.705 5.8931 153.728 5.10547 156.08 5.10547L156.083 5.10831ZM155.833 6.08645C154.223 6.08645 152.932 6.68925 151.958 7.89486C150.746 9.39334 150.141 11.5885 150.141 14.4802C150.141 17.372 150.769 19.7235 152.025 21.3215C152.99 22.5356 154.263 23.1413 155.848 23.1413C157.537 23.1413 158.932 22.4759 160.034 21.148C161.135 19.8173 161.685 17.7217 161.685 14.8555C161.685 11.7505 161.077 9.43315 159.868 7.90908C158.894 6.69494 157.551 6.08929 155.833 6.08929V6.08645Z" fill="white"/>
<path d="M175.716 5.10831C178.053 5.10831 180.076 6.00399 181.789 7.7925C183.501 9.58101 184.355 11.8159 184.355 14.4916C184.355 17.1672 183.492 19.5387 181.768 21.3584C180.042 23.1782 177.954 24.0881 175.504 24.0881C173.053 24.0881 170.946 23.201 169.26 21.4238C167.573 19.6467 166.73 17.3492 166.73 14.5286C166.73 11.7079 167.704 9.29382 169.649 7.47403C171.338 5.8931 173.361 5.10547 175.713 5.10547L175.716 5.10831ZM175.463 6.08645C173.853 6.08645 172.562 6.68925 171.588 7.89486C170.376 9.39334 169.771 11.5885 169.771 14.4802C169.771 17.372 170.399 19.7235 171.655 21.3215C172.62 22.5356 173.893 23.1413 175.478 23.1413C177.167 23.1413 178.562 22.4759 179.664 21.148C180.765 19.8173 181.315 17.7217 181.315 14.8555C181.315 11.7505 180.707 9.43315 179.498 7.90908C178.524 6.69494 177.181 6.08929 175.463 6.08929V6.08645Z" fill="white"/>
<path d="M185.87 23.6758V23.1811H186.547C187.309 23.1811 187.847 22.9365 188.167 22.4446C188.361 22.1489 188.457 21.4892 188.457 20.4627V8.7365C188.457 7.60197 188.332 6.89396 188.085 6.60678C187.739 6.21439 187.228 6.01819 186.545 6.01819H185.867V5.52344H193.193C195.882 5.52344 197.928 5.83053 199.332 6.44755C200.733 7.06457 201.861 8.0882 202.716 9.52697C203.571 10.9629 203.998 12.6234 203.998 14.5058C203.998 17.0307 203.236 19.1406 201.716 20.8381C200.01 22.7289 197.408 23.6758 193.911 23.6758H185.867H185.87ZM191.007 22.365C192.132 22.6152 193.074 22.7403 193.832 22.7403C195.885 22.7403 197.588 22.0124 198.943 20.5594C200.297 19.1036 200.975 17.1331 200.975 14.6423C200.975 12.1514 200.297 10.1582 198.943 8.71091C197.588 7.26645 195.85 6.54138 193.728 6.54138C192.931 6.54138 192.024 6.67218 191.007 6.93093V22.365Z" fill="white"/>
<path d="M19.4826 0H6.55523C2.93895 0 0 2.87469 0 6.4119V22.5881C0 26.1225 2.93895 29 6.55523 29H19.4855C23.0988 29 26.0407 26.1253 26.0407 22.5881V6.4119C26.0407 2.87754 23.1017 0 19.4855 0H19.4826ZM25.4826 22.5881C25.4826 25.8239 22.7907 28.4541 19.4855 28.4541H6.55523C3.24709 28.4541 0.55814 25.8211 0.55814 22.5881V6.4119C0.555233 3.1761 3.24709 0.543092 6.55523 0.543092H19.4855C22.7936 0.543092 25.4826 3.1761 25.4826 6.40906V22.5853V22.5881Z" fill="white"/>
<path d="M19.4825 1.08984H6.55514C3.54933 1.08984 1.11328 3.47263 1.11328 6.41272V22.5918C1.11328 25.5318 3.54933 27.9146 6.55514 27.9146H19.4854C22.4912 27.9146 24.9272 25.5318 24.9272 22.5918V6.41272C24.9272 3.47263 22.4912 1.08984 19.4854 1.08984H19.4825ZM16.154 3.60342H17.465L15.8139 16.541H15.4941L16.1569 3.60342H16.154ZM13.5958 3.60342L13.1017 16.541H12.7819V16.4784L12.2877 3.60342H13.5987H13.5958ZM9.72665 3.60342V3.66314L10.3894 16.541H10.0697L8.41561 3.60342H9.72665ZM6.99991 16.4898L4.88944 3.60627H6.20049L7.3284 16.5438H7.00572L6.997 16.4898H6.99991ZM14.8778 24.5338C16.0115 24.5338 17.1133 24.403 18.0639 24.1528L18.1336 24.3376C16.9272 24.8978 15.3197 25.2077 13.6017 25.2077C10.0813 25.2077 7.22084 23.8827 7.22084 22.2505C7.22084 20.6184 10.0842 19.2934 13.6017 19.2934C15.3197 19.2934 16.9301 19.6033 18.1336 20.1635L18.0639 20.3483C17.1133 20.1009 16.0115 19.9673 14.8778 19.9673C11.6772 19.9673 9.07258 20.9909 9.07258 22.2505C9.07258 23.5102 11.6772 24.5338 14.8778 24.5338ZM18.8691 18.4859H7.01154V17.5475H18.8691V18.4859ZM18.8691 16.541H18.5464L18.5522 16.4727L19.6743 3.60342H20.9854L18.8662 16.541H18.8691Z" fill="white"/>
</g>
<defs>
<clipPath id="clip0_2337_8453">
<rect width="204" height="29" fill="white"/>
</clipPath>
</defs>
</svg>
