<svg width="14" height="16" viewBox="0 0 14 16" fill="none" xmlns="http://www.w3.org/2000/svg">
<g clip-path="url(#clip0_1884_15813)">
<path d="M11.13 1.5H10.5V1C10.5 0.72 10.28 0.5 10 0.5C9.72 0.5 9.5 0.72 9.5 1V1.5H4.5V1C4.5 0.72 4.28 0.5 4 0.5C3.72 0.5 3.5 0.72 3.5 1V1.5H2.87C1.28 1.5 0 2.78 0 4.37V12.64C0 14.22 1.28 15.51 2.87 15.51H11.14C12.72 15.51 14.01 14.23 14.01 12.64V4.37C14.01 2.79 12.73 1.5 11.14 1.5H11.13ZM2.87 2.5H3.5V3C3.5 3.28 3.72 3.5 4 3.5C4.28 3.5 4.5 3.28 4.5 3V2.5H9.5V3C9.5 3.28 9.72 3.5 10 3.5C10.28 3.5 10.5 3.28 10.5 3V2.5H11.13C12.16 2.5 13 3.34 13 4.37V5.5H1V4.37C1 3.34 1.84 2.5 2.87 2.5ZM11.13 14.5H2.87C1.84 14.5 1 13.66 1 12.63V6.5H13V12.63C13 13.66 12.16 14.5 11.13 14.5Z" fill="#191919"/>
<path d="M11 8.5H3C2.72 8.5 2.5 8.72 2.5 9C2.5 9.28 2.72 9.5 3 9.5H11C11.28 9.5 11.5 9.28 11.5 9C11.5 8.72 11.28 8.5 11 8.5Z" fill="#191919"/>
<path d="M11 11.5H3C2.72 11.5 2.5 11.72 2.5 12C2.5 12.28 2.72 12.5 3 12.5H11C11.28 12.5 11.5 12.28 11.5 12C11.5 11.72 11.28 11.5 11 11.5Z" fill="#191919"/>
</g>
<defs>
<clipPath id="clip0_1884_15813">
<rect width="14" height="15" fill="white" transform="translate(0 0.5)"/>
</clipPath>
</defs>
</svg>
