<svg width="193" height="28" viewBox="0 0 193 28" fill="none" xmlns="http://www.w3.org/2000/svg">
<g clip-path="url(#clip0_1020_3255)">
<path d="M46.0397 4.74023L46.4303 10.6977H46.0397C45.5199 8.91319 44.7801 7.63111 43.8176 6.84593C42.855 6.06076 41.6999 5.67091 40.3523 5.67091C39.2219 5.67091 38.2016 5.96741 37.2885 6.55767C36.3754 7.14792 35.6576 8.08958 35.1351 9.38265C34.6125 10.6757 34.3513 12.2818 34.3513 14.2035C34.3513 15.7903 34.5988 17.163 35.0911 18.3271C35.5861 19.4911 36.3287 20.3833 37.3188 21.0038C38.3116 21.6242 39.4419 21.9345 40.7153 21.9345C41.8209 21.9345 42.7945 21.6901 43.6415 21.2042C44.4859 20.7183 45.4154 19.7492 46.4303 18.3023L46.8208 18.5604C45.9682 20.1198 44.9699 21.2619 43.8313 21.9866C42.6927 22.7114 41.3396 23.0711 39.7747 23.0711C36.953 23.0711 34.7693 21.9949 33.2209 19.8398C32.0658 18.2365 31.4883 16.3504 31.4883 14.1788C31.4883 12.43 31.8678 10.824 32.6296 9.35794C33.3914 7.89192 34.4393 6.75808 35.7759 5.95094C37.1097 5.14655 38.5701 4.74298 40.1515 4.74298C41.3809 4.74298 42.5965 5.05321 43.7928 5.67366C44.1448 5.86309 44.3951 5.95918 44.5464 5.95918C44.7719 5.95918 44.9699 5.87682 45.1377 5.71484C45.3549 5.48148 45.5089 5.16028 45.6025 4.74573H46.0425L46.0397 4.74023Z" fill="#E6282D"/>
<path d="M52.9959 13.2716H60.9056V8.25582C60.9056 7.36083 60.8506 6.77058 60.7433 6.48506C60.6608 6.27092 60.4848 6.08424 60.2153 5.9305C59.855 5.7246 59.4755 5.62027 59.0739 5.62027H58.4716V5.14258H65.7542V5.62027H65.1519C64.7504 5.62027 64.3681 5.71911 64.0106 5.91677C63.7438 6.05404 63.5596 6.26269 63.4633 6.54272C63.367 6.82274 63.3175 7.39378 63.3175 8.25582V19.564C63.3175 20.4507 63.3725 21.0383 63.4798 21.321C63.5623 21.5379 63.7356 21.7219 63.9941 21.8756C64.3626 22.0815 64.7477 22.1858 65.1492 22.1858H65.7515V22.6635H58.4689V22.1858H59.0712C59.767 22.1858 60.273 21.9744 60.5893 21.5516C60.7983 21.2771 60.9028 20.6127 60.9028 19.5612V14.2243H52.9932V19.5612C52.9932 20.448 53.0482 21.0355 53.1554 21.3183C53.238 21.5352 53.414 21.7191 53.6835 21.8728C54.0438 22.0787 54.4233 22.1831 54.8248 22.1831H55.4409V22.6608H48.1445V22.1831H48.7468C49.4509 22.1831 49.9597 21.9717 50.2787 21.5489C50.4795 21.2744 50.5812 20.61 50.5812 19.5585V8.25582C50.5812 7.36083 50.5262 6.77058 50.419 6.48506C50.3365 6.27092 50.1632 6.08424 49.9047 5.9305C49.5361 5.7246 49.1511 5.62027 48.7496 5.62027H48.1473V5.14258H55.4436V5.62027H54.8276C54.4261 5.62027 54.0438 5.71911 53.6862 5.91677C53.4277 6.05404 53.2462 6.26269 53.1472 6.54272C53.0454 6.82274 52.9959 7.39378 52.9959 8.25582V13.2716Z" fill="#E6282D"/>
<path d="M71.6568 6.09797V13.0245H75.3999C76.3707 13.0245 77.0198 12.8735 77.347 12.5715C77.7816 12.1762 78.0263 11.4761 78.0758 10.4768H78.5406V16.577H78.0758C77.9576 15.7232 77.8421 15.1769 77.7238 14.9353C77.5725 14.6333 77.325 14.3972 76.984 14.2243C76.6402 14.0513 76.1122 13.9662 75.4026 13.9662H71.6596V19.7424C71.6596 20.5166 71.6926 20.9888 71.7613 21.1563C71.8273 21.3238 71.9456 21.4583 72.1133 21.5571C72.2811 21.656 72.5974 21.7054 73.0677 21.7054H75.9554C76.918 21.7054 77.6166 21.6367 78.0511 21.4995C78.4856 21.3622 78.9037 21.0904 79.3079 20.6841C79.8277 20.1488 80.3585 19.3444 80.9031 18.2682H81.4064L79.9377 22.6635H66.8164V22.1858H67.4187C67.8202 22.1858 68.2025 22.087 68.56 21.8893C68.8268 21.7521 69.0111 21.5434 69.1073 21.2689C69.2036 20.9943 69.2531 20.4288 69.2531 19.575V8.19268C69.2531 7.08081 69.1431 6.39721 68.9258 6.1364C68.6233 5.79049 68.1228 5.62027 67.4187 5.62027H66.8164V5.14258H79.9377L80.1248 8.9806H79.6352C79.4592 8.05816 79.2639 7.42672 79.0522 7.08081C78.8376 6.73764 78.5214 6.47408 78.1033 6.29289C77.7678 6.16385 77.1793 6.09797 76.3322 6.09797H71.6623H71.6568Z" fill="#E6282D"/>
<path d="M87.251 6.09717V12.9853H90.3533C91.0656 12.9853 91.5854 12.8233 91.9154 12.4994C92.2454 12.1754 92.4654 11.5357 92.5754 10.5804H93.0402V16.5131H92.5754C92.5672 15.8322 92.4819 15.3326 92.3169 15.0141C92.1547 14.6957 91.9264 14.4568 91.6376 14.2976C91.3488 14.1384 90.9198 14.0587 90.3505 14.0587H87.2482V19.5659C87.2482 20.4527 87.3032 21.0402 87.4105 21.323C87.493 21.5399 87.669 21.7238 87.9386 21.8775C88.3071 22.0834 88.6921 22.1878 89.0937 22.1878H89.7097V22.6655H82.4023V22.1878H83.0046C83.7087 22.1878 84.2175 21.9764 84.5365 21.5536C84.7373 21.2791 84.8391 20.6147 84.8391 19.5632V8.24405C84.8391 7.3573 84.784 6.76979 84.6768 6.48702C84.5943 6.27288 84.421 6.08619 84.1625 5.93245C83.8022 5.72655 83.4172 5.62223 83.0074 5.62223H82.4051V5.14453H95.0754L95.2377 8.99628H94.7976C94.5804 8.17816 94.3273 7.57693 94.0386 7.19258C93.7498 6.80822 93.395 6.53094 92.9715 6.35798C92.5479 6.18503 91.8934 6.09992 91.0051 6.09992H87.251V6.09717Z" fill="#E6282D"/>
<path d="M99.2825 11.4342V10.8275C100.143 10.3031 100.732 9.81172 101.04 9.35324C101.257 9.02655 101.367 8.63396 101.367 8.17823C101.367 7.91193 101.32 7.71426 101.23 7.58248C101.128 7.45345 101.021 7.38756 100.902 7.38756C100.809 7.38756 100.688 7.41776 100.539 7.47816C100.322 7.55503 100.141 7.59346 100 7.59346C99.6648 7.59346 99.3678 7.46443 99.1093 7.20637C98.8508 6.9483 98.7188 6.62435 98.7188 6.23725C98.7188 5.80623 98.848 5.47129 99.1093 5.2297C99.4613 4.903 99.8793 4.73828 100.366 4.73828C100.927 4.73828 101.43 4.98262 101.879 5.46855C102.327 5.95448 102.55 6.56121 102.55 7.28324C102.55 8.29902 102.179 9.22696 101.433 10.0615C100.938 10.6134 100.223 11.0691 99.2853 11.4315L99.2825 11.4342Z" fill="#E6282D"/>
<path d="M115.026 4.92969V10.9915H114.561C114.41 9.82742 114.141 8.90223 113.753 8.21315C113.362 7.52406 112.81 6.97773 112.089 6.57142C111.368 6.16785 110.623 5.96469 109.853 5.96469C108.981 5.96469 108.263 6.23923 107.694 6.78556C107.125 7.33188 106.842 7.95508 106.842 8.65241C106.842 9.18775 107.02 9.67368 107.381 10.1129C107.9 10.7581 109.135 11.6201 111.085 12.6991C112.675 13.5776 113.761 14.253 114.344 14.7224C114.927 15.1919 115.373 15.7464 115.689 16.3834C116.003 17.0203 116.159 17.6874 116.159 18.3875C116.159 19.7135 115.659 20.8583 114.658 21.8192C113.657 22.7801 112.37 23.2605 110.796 23.2605C110.301 23.2605 109.837 23.2221 109.402 23.1452C109.144 23.1013 108.604 22.9448 107.788 22.673C106.971 22.4012 106.454 22.2667 106.237 22.2667C106.019 22.2667 105.862 22.3326 105.741 22.4616C105.62 22.5906 105.53 22.8569 105.472 23.2633H105.007V17.2536H105.472C105.689 18.511 105.984 19.4527 106.352 20.0786C106.721 20.7046 107.284 21.2234 108.041 21.6352C108.797 22.0498 109.63 22.2557 110.532 22.2557C111.577 22.2557 112.405 21.9702 113.013 21.4019C113.621 20.8336 113.923 20.161 113.923 19.3868C113.923 18.9558 113.808 18.522 113.577 18.0827C113.346 17.6435 112.988 17.2344 112.504 16.8556C112.177 16.5975 111.286 16.0484 109.831 15.2083C108.373 14.3683 107.339 13.6984 106.723 13.1987C106.107 12.6991 105.642 12.1473 105.323 11.5433C105.004 10.9393 104.848 10.2777 104.848 9.55289C104.848 8.29551 105.315 7.21109 106.253 6.30237C107.191 5.39365 108.384 4.93792 109.831 4.93792C110.736 4.93792 111.693 5.16579 112.705 5.62152C113.173 5.8384 113.505 5.94547 113.698 5.94547C113.915 5.94547 114.094 5.87958 114.231 5.74506C114.369 5.61054 114.482 5.34149 114.564 4.93792H115.029L115.026 4.92969Z" fill="#E6282D"/>
<path d="M129.231 6.28663V13.1748H132.334C133.046 13.1748 133.566 13.0128 133.896 12.6888C134.226 12.3649 134.446 11.7252 134.556 10.7698H135.021V16.7025H134.556C134.548 16.0217 134.462 15.522 134.297 15.2036C134.135 14.8851 133.907 14.6463 133.618 14.487C133.329 14.3278 132.9 14.2482 132.331 14.2482H129.229V19.7554C129.229 20.6422 129.284 21.2297 129.391 21.5124C129.473 21.7293 129.65 21.9133 129.919 22.067C130.288 22.2729 130.673 22.3772 131.074 22.3772H131.69V22.8549H124.383V22.3772H124.985C125.689 22.3772 126.198 22.1658 126.517 21.743C126.718 21.4685 126.82 20.8041 126.82 19.7527V8.4335C126.82 7.54675 126.765 6.95924 126.657 6.67647C126.575 6.46233 126.401 6.27565 126.143 6.1219C125.783 5.916 125.398 5.81168 124.988 5.81168H124.386V5.33398H137.056L137.218 9.18573H136.778C136.561 8.36761 136.308 7.76638 136.019 7.38203C135.73 6.99768 135.375 6.72039 134.952 6.54744C134.528 6.37448 133.874 6.28937 132.986 6.28937H129.231V6.28663Z" fill="#E6282D"/>
<path d="M147.669 4.93048C149.88 4.93048 151.794 5.79527 153.414 7.52211C155.034 9.24894 155.843 11.4068 155.843 13.9902C155.843 16.5736 155.026 18.8632 153.395 20.6203C151.761 22.3773 149.787 23.2558 147.468 23.2558C145.15 23.2558 143.156 22.3993 141.561 20.6834C139.966 18.9675 139.168 16.7493 139.168 14.0259C139.168 11.3025 140.089 8.97166 141.929 7.21463C143.527 5.6882 145.441 4.92773 147.666 4.92773L147.669 4.93048ZM147.432 5.87489C145.909 5.87489 144.688 6.4569 143.766 7.62094C142.62 9.06775 142.047 11.1872 142.047 13.9792C142.047 16.7713 142.642 19.0417 143.83 20.5846C144.743 21.7568 145.947 22.3416 147.446 22.3416C149.044 22.3416 150.364 21.6992 151.406 20.4171C152.449 19.1323 152.969 17.1089 152.969 14.3416C152.969 11.3437 152.394 9.10618 151.25 7.63467C150.328 6.46239 149.058 5.87763 147.432 5.87763V5.87489Z" fill="#E6282D"/>
<path d="M166.243 4.93048C168.454 4.93048 170.368 5.79527 171.988 7.52211C173.608 9.24894 174.417 11.4068 174.417 13.9902C174.417 16.5736 173.6 18.8632 171.969 20.6203C170.335 22.3773 168.361 23.2558 166.042 23.2558C163.724 23.2558 161.73 22.3993 160.135 20.6834C158.54 18.9675 157.742 16.7493 157.742 14.0259C157.742 11.3025 158.664 8.97166 160.503 7.21463C162.101 5.6882 164.015 4.92773 166.24 4.92773L166.243 4.93048ZM166.004 5.87489C164.48 5.87489 163.259 6.4569 162.338 7.62094C161.191 9.06775 160.619 11.1872 160.619 13.9792C160.619 16.7713 161.213 19.0417 162.401 20.5846C163.314 21.7568 164.519 22.3416 166.018 22.3416C167.616 22.3416 168.936 21.6992 169.978 20.4171C171.02 19.1323 171.54 17.1089 171.54 14.3416C171.54 11.3437 170.965 9.10618 169.821 7.63467C168.9 6.46239 167.629 5.87763 166.004 5.87763V5.87489Z" fill="#E6282D"/>
<path d="M175.85 22.8585V22.3808H176.491C177.212 22.3808 177.721 22.1447 178.023 21.6697C178.207 21.3842 178.298 20.7473 178.298 19.7562V8.4343C178.298 7.33889 178.18 6.6553 177.946 6.37802C177.619 5.99916 177.135 5.80973 176.488 5.80973H175.848V5.33203H182.778C185.322 5.33203 187.258 5.62853 188.587 6.22428C189.912 6.82002 190.979 7.80835 191.788 9.19751C192.597 10.5839 193.001 12.1872 193.001 14.0046C193.001 16.4425 192.28 18.4796 190.842 20.1186C189.228 21.9442 186.766 22.8585 183.458 22.8585H175.848H175.85ZM180.71 21.5928C181.774 21.8344 182.665 21.9552 183.383 21.9552C185.325 21.9552 186.937 21.2524 188.218 19.8495C189.5 18.4439 190.141 16.5414 190.141 14.1364C190.141 11.7315 189.5 9.80698 188.218 8.40959C186.937 7.01494 185.292 6.31487 183.284 6.31487C182.531 6.31487 181.673 6.44116 180.71 6.69099V21.5928Z" fill="#E6282D"/>
<path d="M18.432 0H6.20176C2.78048 0 0 2.77557 0 6.1908V21.8092C0 25.2217 2.78048 28 6.20176 28H18.4348C21.8533 28 24.6365 25.2244 24.6365 21.8092V6.1908C24.6365 2.77831 21.8561 0 18.4348 0H18.432ZM24.1085 21.8092C24.1085 24.9334 21.5618 27.4729 18.4348 27.4729H6.20176C3.072 27.4729 0.528044 24.9307 0.528044 21.8092V6.1908C0.525293 3.06658 3.072 0.524365 6.20176 0.524365H18.4348C21.5645 0.524365 24.1085 3.06658 24.1085 6.18806V21.8065V21.8092Z" fill="#E6282D"/>
<path d="M18.4334 1.05078H6.20311C3.35938 1.05078 1.05469 3.3514 1.05469 6.19011V21.8112C1.05469 24.65 3.35938 26.9506 6.20311 26.9506H18.4361C21.2799 26.9506 23.5846 24.65 23.5846 21.8112V6.19011C23.5846 3.3514 21.2799 1.05078 18.4361 1.05078H18.4334ZM15.2844 3.47769H16.5247L14.9626 15.9691H14.6601L15.2871 3.47769H15.2844ZM12.8642 3.47769L12.3966 15.9691H12.0941V15.9087L11.6266 3.47769H12.8669H12.8642ZM9.20361 3.47769V3.53534L9.83066 15.9691H9.52814L7.96326 3.47769H9.20361ZM6.6239 15.9197L4.62723 3.48043H5.86759L6.93467 15.9719H6.6294L6.62115 15.9197H6.6239ZM14.077 23.6863C15.1496 23.6863 16.1919 23.56 17.0913 23.3185L17.1573 23.4969C16.0159 24.0377 14.4951 24.337 12.8697 24.337C9.53914 24.337 6.83292 23.0576 6.83292 21.4818C6.83292 19.906 9.54189 18.6266 12.8697 18.6266C14.4951 18.6266 16.0187 18.9259 17.1573 19.4667L17.0913 19.6452C16.1919 19.4063 15.1496 19.2773 14.077 19.2773C11.049 19.2773 8.58481 20.2656 8.58481 21.4818C8.58481 22.698 11.049 23.6863 14.077 23.6863ZM17.8531 17.8469H6.6349V16.941H17.8531V17.8469ZM17.8531 15.9691H17.5478L17.5533 15.9032L18.6149 3.47769H19.8552L17.8503 15.9691H17.8531Z" fill="#E6282D"/>
</g>
<defs>
<clipPath id="clip0_1020_3255">
<rect width="193" height="28" fill="white"/>
</clipPath>
</defs>
</svg>
