<svg width="24" height="24" viewBox="0 0 24 24" fill="none" xmlns="http://www.w3.org/2000/svg">
<g clip-path="url(#clip0_926_8605)">
<path d="M12 21C12 21 2 15.2727 2 8.31819C2 7.08875 2.41649 5.89729 3.17862 4.94652C3.94075 3.99575 5.00143 3.3444 6.1802 3.10328C7.35897 2.86217 8.58301 3.0462 9.64406 3.62404C10.7051 4.20189 11.5376 5.13787 12 6.27273C12.4624 5.13787 13.2949 4.20189 14.3559 3.62404C15.417 3.0462 16.641 2.86217 17.8198 3.10328C18.9986 3.3444 20.0593 3.99575 20.8214 4.94652C21.5835 5.89729 22 7.08875 22 8.31819C22 15.2727 12 21 12 21Z" fill="#E6282D" stroke="#E6282D" stroke-width="1.09091" stroke-linecap="round" stroke-linejoin="round"/>
</g>
<defs>
<clipPath id="clip0_926_8605">
<rect width="24" height="24" fill="white"/>
</clipPath>
</defs>
</svg>
