<svg width="26" height="25" viewBox="0 0 26 25" fill="none" xmlns="http://www.w3.org/2000/svg">
<path fill-rule="evenodd" clip-rule="evenodd" d="M2 1C1.44772 1 1 1.44771 1 2V18.4615C1 19.0138 1.44772 19.4615 2 19.4615H6.18057L8.41224 23.3269C8.60469 23.6602 9.08582 23.6602 9.27826 23.3269L11.5099 19.4615H24C24.5523 19.4615 25 19.0138 25 18.4615V2C25 1.44772 24.5523 1 24 1H2Z" fill="#E6282D"/>
<path d="M6.18057 19.4615L6.83009 19.0865L6.61358 18.7115H6.18057V19.4615ZM8.41224 23.3269L7.76272 23.7019L8.41224 23.3269ZM9.27826 23.3269L8.62875 22.9519L8.62875 22.9519L9.27826 23.3269ZM11.5099 19.4615V18.7115H11.0769L10.8604 19.0865L11.5099 19.4615ZM1.75 2C1.75 1.86193 1.86193 1.75 2 1.75V0.25C1.0335 0.25 0.25 1.0335 0.25 2H1.75ZM1.75 18.4615V2H0.25V18.4615H1.75ZM2 18.7115C1.86193 18.7115 1.75 18.5996 1.75 18.4615H0.25C0.25 19.428 1.0335 20.2115 2 20.2115V18.7115ZM6.18057 18.7115H2V20.2115H6.18057V18.7115ZM5.53105 19.8365L7.76272 23.7019L9.06176 22.9519L6.83009 19.0865L5.53105 19.8365ZM7.76272 23.7019C8.24385 24.5352 9.44666 24.5352 9.92778 23.7019L8.62875 22.9519C8.72497 22.7852 8.96553 22.7852 9.06176 22.9519L7.76272 23.7019ZM9.92778 23.7019L12.1595 19.8365L10.8604 19.0865L8.62875 22.9519L9.92778 23.7019ZM24 18.7115H11.5099V20.2115H24V18.7115ZM24.25 18.4615C24.25 18.5996 24.1381 18.7115 24 18.7115V20.2115C24.9665 20.2115 25.75 19.428 25.75 18.4615H24.25ZM24.25 2V18.4615H25.75V2H24.25ZM24 1.75C24.1381 1.75 24.25 1.86193 24.25 2H25.75C25.75 1.0335 24.9665 0.25 24 0.25V1.75ZM2 1.75H24V0.25H2V1.75Z" fill="white"/>
<circle cx="7" cy="10" r="1" fill="#E6282D" stroke="white"/>
<circle cx="13" cy="10" r="1" fill="#E6282D" stroke="white"/>
<circle cx="19" cy="10" r="1" fill="#E6282D" stroke="white"/>
</svg>
