<?xml version="1.0" encoding="UTF-8"?>
<svg version="1.1" xmlns="http://www.w3.org/2000/svg" width="824" height="303">
<path d="M0 0 C4.02106055 3.21325821 7.97668165 6.62733171 11.32348633 10.55200195 C13.49108074 12.42414444 15.22552934 12.74862182 18.0234375 13.32421875 C19.03446533 13.54392334 20.04549316 13.76362793 21.0871582 13.98999023 C22.172146 14.22016846 23.25713379 14.45034668 24.375 14.6875 C62.5772105 23.34460715 62.5772105 23.34460715 73.5625 35.9375 C75 39 75 39 75.84375 42.8671875 C76.93923171 45.81376019 77.72201484 46.8276397 80.42749023 48.50512695 C83.56286849 49.86246141 86.71444888 51.05405721 89.9375 52.1875 C92.11818468 52.98012702 94.29422003 53.78569079 96.46484375 54.60546875 C97.430271 54.94731201 98.39569824 55.28915527 99.39038086 55.64135742 C102.54483883 57.28365872 104.03939025 59.05668233 106 62 C107.4449511 69.08026038 103.59391219 75.12780419 100 81 C86.3432184 99.63581655 58.61904636 103.58456359 37.63525391 108.33911133 C35.04352213 108.88815267 35.04352213 108.88815267 33 110 C33.99966797 110.70962891 33.99966797 110.70962891 35.01953125 111.43359375 C51.35507939 123.15406396 65.00001975 135.93065376 77 152 C77.41604492 152.54994629 77.83208984 153.09989258 78.26074219 153.66650391 C84.30907017 161.69336899 89.55360687 170.09419009 94.67285156 178.73876953 C104.59610759 195.49027768 115.76073303 211.17987696 129.828125 224.72265625 C132 227 132 227 132 229 C105.53990436 229.09345223 79.07983346 229.16398366 52.61960602 229.20724869 C40.33358747 229.22787157 28.04767147 229.25598711 15.76171875 229.30175781 C5.05295541 229.34163374 -5.65573366 229.3674348 -16.36456919 229.37635398 C-22.03453676 229.3815674 -27.70429183 229.39381547 -33.37419128 229.42292023 C-38.71262125 229.45010107 -44.05075149 229.4584395 -49.38924408 229.45243073 C-51.34677001 229.45352976 -53.30430613 229.46146761 -55.26177216 229.4768219 C-57.93932542 229.49679159 -60.61575442 229.49191387 -63.29333496 229.48101807 C-64.06378568 229.49266943 -64.8342364 229.5043208 -65.62803411 229.51632524 C-72.02714919 229.44617945 -77.05061717 227.39139148 -82.0234375 223.359375 C-82.46945313 222.82828125 -82.91546875 222.2971875 -83.375 221.75 C-83.83648437 221.22921875 -84.29796875 220.7084375 -84.7734375 220.171875 C-88.94867251 212.7787837 -88.29024721 204.21568768 -88.2746582 196.00341797 C-88.27901193 194.59639721 -88.28419727 193.18937881 -88.29014587 191.78236389 C-88.3034814 187.97827297 -88.30412025 184.17428175 -88.30158257 180.37017202 C-88.30050837 177.18240607 -88.30540808 173.99465992 -88.310188 170.80689824 C-88.32126606 163.27619818 -88.32173129 155.745548 -88.31567383 148.21484375 C-88.30964569 140.47821712 -88.32191937 132.7417729 -88.3432439 125.00517738 C-88.36093846 118.33732482 -88.36684864 111.66952988 -88.36360615 105.00165474 C-88.36180437 101.0307552 -88.36431705 97.05998554 -88.37832069 93.08910751 C-88.3910217 89.34776679 -88.38884091 85.60670689 -88.37590981 81.8653698 C-88.37246725 79.8618736 -88.38363314 77.85836832 -88.39547729 75.85490417 C-88.32243244 63.06964253 -86.6993816 51.47409908 -79 41 C-78.53207031 40.32710937 -78.06414062 39.65421875 -77.58203125 38.9609375 C-65.2163551 23.00317547 -43.92672699 16.71112294 -25 13 C-24.34 13 -23.68 13 -23 13 C-23.04640625 12.25234375 -23.0928125 11.5046875 -23.140625 10.734375 C-23.43672457 2.65508685 -23.43672457 2.65508685 -21.25 -0.625 C-14.65209269 -4.65705447 -6.59162246 -3.77841216 0 0 Z " fill="#6EC2DE" transform="translate(122,38)"/>
<path d="M0 0 C4.0161687 2.25239135 7.46078636 5.06862915 11 8 C11.91007813 8.70898438 12.82015625 9.41796875 13.7578125 10.1484375 C25.54423594 19.44997395 35.06682505 30.03745686 44 42 C44.41604492 42.54994629 44.83208984 43.09989258 45.26074219 43.66650391 C51.30907017 51.69336899 56.55360687 60.09419009 61.67285156 68.73876953 C71.59610759 85.49027768 82.76073303 101.17987696 96.828125 114.72265625 C99 117 99 117 99 119 C72.53990436 119.09345223 46.07983346 119.16398366 19.61960602 119.20724869 C7.33358747 119.22787157 -4.95232853 119.25598711 -17.23828125 119.30175781 C-27.94704459 119.34163374 -38.65573366 119.3674348 -49.36456919 119.37635398 C-55.03453676 119.3815674 -60.70429183 119.39381547 -66.37419128 119.42292023 C-71.71262125 119.45010107 -77.05075149 119.4584395 -82.38924408 119.45243073 C-84.34677001 119.45352976 -86.30430613 119.46146761 -88.26177216 119.4768219 C-90.93932542 119.49679159 -93.61575442 119.49191387 -96.29333496 119.48101807 C-97.06378568 119.49266943 -97.8342364 119.5043208 -98.62803411 119.51632524 C-105.06792973 119.44573243 -110.31706808 117.46269124 -115.09375 113.078125 C-115.5578125 112.47484375 -116.021875 111.8715625 -116.5 111.25 C-116.9846875 110.63640625 -117.469375 110.0228125 -117.96875 109.390625 C-118.3090625 108.93171875 -118.649375 108.4728125 -119 108 C-118.01 107.505 -118.01 107.505 -117 107 C-117.10441406 105.49953125 -117.10441406 105.49953125 -117.2109375 103.96875 C-116.97339646 99.49945929 -115.68183823 96.37413859 -113.625 92.5 C-113.26704346 91.8085791 -112.90908691 91.1171582 -112.5402832 90.40478516 C-104.38171087 75.01184693 -93.74021144 59.91727912 -81 48 C-78.60319814 45.63397569 -76.23846132 43.25897903 -73.95703125 40.78125 C-58.09138593 23.90413367 -36.96385075 12.31280812 -16 3 C-15.05688965 2.57062134 -15.05688965 2.57062134 -14.09472656 2.13256836 C-9.13902366 -0.07871231 -5.34729468 -1.31546866 0 0 Z " fill="#0A3E74" transform="translate(155,148)"/>
<path d="M0 0 C5.28 0 10.56 0 16 0 C16 13.53 16 27.06 16 41 C20.62 41 25.24 41 30 41 C30 27.47 30 13.94 30 0 C35.28 0 40.56 0 46 0 C46.06946214 15.55967768 46.12299163 31.11931509 46.15543652 46.67911053 C46.17090201 53.90388456 46.19198537 61.12856045 46.22631836 68.35327148 C46.25623055 74.65071596 46.27557732 80.94808936 46.28226548 87.24560291 C46.28617471 90.57978295 46.29693055 93.91371235 46.31719017 97.24783897 C46.3389168 100.97093213 46.34196884 104.69360186 46.34057617 108.41674805 C46.351362 109.52086029 46.36214783 110.62497253 46.3732605 111.76254272 C46.33448556 121.3206361 46.33448556 121.3206361 43 125 C40.15785932 125.94738023 38.32391609 126.13460559 35.375 126.125 C34.18003906 126.12886719 34.18003906 126.12886719 32.9609375 126.1328125 C31 126 31 126 30 125 C29.90563471 122.76070114 29.88257673 120.5183825 29.88647461 118.27709961 C29.88632858 117.5746965 29.88618256 116.8722934 29.8860321 116.14860535 C29.88673128 113.81648722 29.89452383 111.484448 29.90234375 109.15234375 C29.90420792 107.53951562 29.90563182 105.92668693 29.90663147 104.31385803 C29.91045677 100.06084643 29.92028715 95.80786876 29.93133545 91.55487061 C29.94154931 87.2182257 29.94612904 82.88157533 29.95117188 78.54492188 C29.96190941 70.02993058 29.9795063 61.51497341 30 53 C25.38 53 20.76 53 16 53 C16.01047363 54.91256592 16.02094727 56.82513184 16.03173828 58.7956543 C16.06401705 65.12196631 16.08698257 71.4482588 16.10362434 77.77463055 C16.11405181 81.60948483 16.128192 85.44424983 16.15087891 89.27905273 C16.17264438 92.98136584 16.18457643 96.68359319 16.18975449 100.38596535 C16.1934436 101.79692751 16.20064754 103.2078851 16.21146011 104.61881065 C16.22602342 106.5982847 16.22681734 108.57784544 16.22705078 110.55737305 C16.231492 111.68322311 16.23593323 112.80907318 16.24050903 113.96903992 C15.90480225 118.19970786 15.01333921 120.98666079 12 124 C9.43359375 124.44921875 9.43359375 124.44921875 6.4375 124.6875 C5.44621094 124.77386719 4.45492188 124.86023438 3.43359375 124.94921875 C2.63050781 124.96597656 1.82742188 124.98273438 1 125 C0 124 0 124 -0.12304783 121.94039822 C-0.12212604 121.02690137 -0.12120424 120.11340452 -0.12025452 119.17222595 C-0.12162918 118.12749619 -0.12300385 117.08276642 -0.12442017 116.00637817 C-0.12082489 114.85048187 -0.11722961 113.69458557 -0.11352539 112.50366211 C-0.11367142 111.29407333 -0.11381744 110.08448456 -0.1139679 108.83824158 C-0.11338893 105.51193649 -0.10835973 102.18569281 -0.10139394 98.8593986 C-0.09515978 95.38670071 -0.09455655 91.91400207 -0.09336853 88.44129944 C-0.0902554 81.86103807 -0.08204225 75.28079324 -0.07201904 68.70053917 C-0.06085734 61.21093888 -0.05534731 53.72133782 -0.05032361 46.2317313 C-0.03985962 30.82114435 -0.02206006 15.41057495 0 0 Z " fill="#464647" transform="translate(357,141)"/>
<path d="M0 0 C2.14850879 0.06430911 4.29505468 0.20135164 6.4375 0.375 C8.19900391 0.51035156 8.19900391 0.51035156 9.99609375 0.6484375 C13 1 13 1 15 2 C15.96070434 4.88211302 16.10581883 6.69850044 16.0625 9.6875 C16.05347656 10.49574219 16.04445313 11.30398437 16.03515625 12.13671875 C16.02355469 12.75160156 16.01195312 13.36648437 16 14 C16.87325928 13.99476318 17.74651855 13.98952637 18.64624023 13.98413086 C21.87589273 13.96712249 25.10552245 13.95456631 28.33520508 13.94506836 C29.73495228 13.9400292 31.1346942 13.93319784 32.53442383 13.92456055 C34.54245777 13.9124768 36.55052957 13.90730193 38.55859375 13.90234375 C40.37315063 13.89448853 40.37315063 13.89448853 42.22436523 13.88647461 C45 14 45 14 46 15 C45.63228438 20.79152098 45.63228438 20.79152098 45 23 C41.91111478 25.05925681 41.29064073 25.2390374 37.8125 25.125 C36.554375 25.08375 35.29625 25.0425 34 25 C34.42152344 25.68707031 34.84304688 26.37414062 35.27734375 27.08203125 C35.82519531 27.98308594 36.37304688 28.88414062 36.9375 29.8125 C37.48277344 30.70582031 38.02804687 31.59914062 38.58984375 32.51953125 C42.44271653 39.29674515 41.83428161 49.00196432 40.57421875 56.55078125 C38.1538021 63.96052303 32.67581776 69.41039929 25.875 72.9375 C16.25147829 77.47254617 3.04373163 77.75427167 -7.0625 74.4375 C-15.08844392 70.94213444 -20.50692185 65.7421644 -24.08984375 57.73828125 C-26.93465159 49.17943878 -26.52157362 41.25013821 -23 33 C-21.77479118 30.56270961 -20.45756864 28.31200543 -19 26 C-19.62648438 26.01160156 -20.25296875 26.02320313 -20.8984375 26.03515625 C-21.71570313 26.04417969 -22.53296875 26.05320313 -23.375 26.0625 C-24.18710937 26.07410156 -24.99921875 26.08570313 -25.8359375 26.09765625 C-28 26 -28 26 -30 25 C-30.02688151 23.35425434 -30.04634123 21.70838587 -30.0625 20.0625 C-30.07410156 19.14597656 -30.08570313 18.22945312 -30.09765625 17.28515625 C-30 15 -30 15 -29 14 C-26.92737924 13.91232888 -24.85179706 13.89304127 -22.77734375 13.90234375 C-21.51728516 13.90556641 -20.25722656 13.90878906 -18.95898438 13.91210938 C-17.61848891 13.92046597 -16.27799412 13.92893093 -14.9375 13.9375 C-13.59310058 13.9425134 -12.2486994 13.94707658 -10.90429688 13.95117188 C-7.60282059 13.96300512 -4.30143197 13.97949029 -1 14 C-1.01160156 13.07316406 -1.02320313 12.14632812 -1.03515625 11.19140625 C-1.04417969 9.99386719 -1.05320312 8.79632813 -1.0625 7.5625 C-1.07410156 6.36753906 -1.08570313 5.17257813 -1.09765625 3.94140625 C-1 1 -1 1 0 0 Z M-3 31 C-7.35223636 36.46819441 -8.22790761 42.07730623 -8 49 C-7.22606996 54.24635265 -6.05990827 58.5362243 -1.9375 62.0625 C2.90748116 65.25812587 6.26901642 65.52187709 12 65 C17.21440424 63.22907026 19.32620669 60.75341032 22 56 C24.20734891 49.37795328 24.27330466 40.71165845 21.3125 34.3125 C18.89706306 30.38741497 16.45571254 28.6398025 11.9609375 27.46875 C6.07831411 26.41755957 1.74507404 27.29626574 -3 31 Z " fill="#474748" transform="translate(450,138)"/>
<path d="M0 0 C5.28 0 10.56 0 16 0 C19.07318149 3.07318149 17 8.65386506 17 13 C34.82 13 52.64 13 71 13 C71 9.04 71 5.08 71 1 C72.82116003 -0.82116003 75.30671764 -0.1323508 77.7265625 -0.13671875 C78.85191406 -0.13091797 78.85191406 -0.13091797 80 -0.125 C80.75023437 -0.12886719 81.50046875 -0.13273438 82.2734375 -0.13671875 C87.87338947 -0.12661053 87.87338947 -0.12661053 89 1 C89.12600928 3.72981917 89.18868981 6.43290336 89.203125 9.1640625 C89.20882507 9.98949554 89.21452515 10.81492859 89.22039795 11.66537476 C89.2298668 13.41899325 89.23638938 15.17262969 89.24023438 16.92626953 C89.24988456 19.59309738 89.28086603 22.25913634 89.3125 24.92578125 C89.3190355 26.63020376 89.32428382 28.33463179 89.328125 30.0390625 C89.3404718 30.83100006 89.3528186 31.62293762 89.36553955 32.43887329 C89.342436 38.26678344 88.61125229 43.28339538 84.39074707 47.67417908 C80.99554179 49.5570358 77.79817242 49.39475934 74.01855469 49.34057617 C72.81798935 49.34123329 72.81798935 49.34123329 71.59317017 49.34190369 C68.95248872 49.33981672 66.31244528 49.3164903 63.671875 49.29296875 C61.8391352 49.28737246 60.00639091 49.28310252 58.17364502 49.28010559 C53.35338925 49.26865939 48.53340531 49.23919411 43.71325684 49.20599365 C37.92799497 49.1698879 32.14264213 49.15613055 26.3572998 49.13863373 C17.57134424 49.10955665 8.78598492 49.05206795 0 49 C0 32.83 0 16.66 0 0 Z M17 25 C17 28.96 17 32.92 17 37 C24.36897536 37.0246619 31.73792686 37.04284179 39.10693359 37.05493164 C41.61540139 37.05997003 44.12386624 37.06680084 46.63232422 37.07543945 C50.2314527 37.08752661 53.83054247 37.09323315 57.4296875 37.09765625 C58.55680145 37.10281754 59.68391541 37.10797882 60.84518433 37.11329651 C62.40657639 37.11340981 62.40657639 37.11340981 63.99951172 37.11352539 C64.91884491 37.115746 65.8381781 37.11796661 66.78536987 37.12025452 C69.04150588 37.14510529 69.04150588 37.14510529 71 36 C71 32.04 71 28.08 71 24 C64.11320253 23.97526704 57.22643096 23.95712429 50.33959961 23.94506836 C47.99714711 23.94004199 45.65469775 23.93321992 43.31225586 23.92456055 C39.94383978 23.91242082 36.57546522 23.90675469 33.20703125 23.90234375 C32.16102249 23.89718246 31.11501373 23.89202118 30.03730774 23.88670349 C28.56634895 23.88659019 28.56634895 23.88659019 27.06567383 23.88647461 C26.20629715 23.884254 25.34692047 23.88203339 24.46150208 23.87974548 C21.55393911 23.96091589 21.55393911 23.96091589 17 25 Z " fill="#454547" transform="translate(693,143)"/>
<path d="M0 0 C18.81 0 37.62 0 57 0 C57 6 57 6 54.98828125 8.85546875 C51.30163441 11.50118001 48.54232017 11.58337398 44.1875 11.3125 C43.49462891 11.28994141 42.80175781 11.26738281 42.08789062 11.24414062 C40.39098427 11.18562661 38.69520139 11.0959548 37 11 C37.21086055 42.26113364 37.21086055 42.26113364 50 70 C50 70.66 50 71.32 50 72 C50.66 72 51.32 72 52 72 C53.66666667 73.66666667 55.33333333 75.33333333 57 77 C58.95045643 78.43645379 60.94613415 79.7103633 63 81 C62.75 82.875 62.75 82.875 62 85 C59.81145371 86.44617596 58.49050949 87.02318772 55.8515625 86.8984375 C46.52653052 84.706237 39.54273543 79.40733303 34.29296875 71.39453125 C33.26101485 69.65452138 32.2487673 67.90258918 31.26171875 66.13671875 C30.0527472 63.88652098 30.0527472 63.88652098 28 62 C27.57589844 62.70125 27.15179687 63.4025 26.71484375 64.125 C20.1307455 74.77532157 14.13571981 83.18900929 1.75 87 C-1.70790083 87 -3.34667986 86.18508717 -6 84 C-6 83.01 -6 82.02 -6 81 C-4.05859375 79.2734375 -4.05859375 79.2734375 -1.4375 77.375 C10.62974266 67.98368544 15.43105795 56.49467492 17.59155273 41.55810547 C18.27423593 35.61104935 18.46804468 29.66815158 18.625 23.6875 C18.66367187 22.45837891 18.70234375 21.22925781 18.7421875 19.96289062 C18.83518108 16.97547172 18.91861305 13.98775763 19 11 C12.73 11 6.46 11 0 11 C0 7.37 0 3.74 0 0 Z " fill="#464647" transform="translate(551,149)"/>
<path d="M0 0 C17.49 0 34.98 0 53 0 C53 4.29 53 8.58 53 13 C41.12 13 29.24 13 17 13 C17.07388663 20.77847856 17.15661876 28.55578313 17.26245117 36.33374023 C17.29574872 38.98081426 17.32376542 41.62796011 17.34643555 44.27514648 C17.37989211 48.0756701 17.43220486 51.87553255 17.48828125 55.67578125 C17.49467117 56.86335526 17.5010611 58.05092926 17.50764465 59.27449036 C17.53733589 60.9258625 17.53733589 60.9258625 17.56762695 62.6105957 C17.57873001 63.58100296 17.58983307 64.55141022 17.60127258 65.55122375 C17.81731498 68.032682 17.81731498 68.032682 19.31066895 69.80981445 C22.14391345 71.80592212 25.38365339 71.48235159 28.73046875 71.51171875 C29.85609978 71.53864555 29.85609978 71.53864555 31.00447083 71.56611633 C33.3987569 71.62025187 35.79284331 71.65412416 38.1875 71.6875 C39.81187677 71.72067036 41.43622717 71.75515976 43.06054688 71.79101562 C47.04022056 71.8759797 51.0198347 71.94277465 55 72 C55.02687279 73.81242052 55.04633715 75.62495233 55.0625 77.4375 C55.07410156 78.44683594 55.08570313 79.45617187 55.09765625 80.49609375 C55 83 55 83 54 84 C52.58418836 84.10848066 51.16307383 84.14901211 49.74316406 84.16113281 C48.38605316 84.17554413 48.38605316 84.17554413 47.00152588 84.19024658 C46.01617859 84.19449646 45.0308313 84.19874634 44.015625 84.203125 C43.00788025 84.20882507 42.0001355 84.21452515 40.96185303 84.22039795 C38.82321223 84.2298659 36.68455673 84.23638902 34.54589844 84.24023438 C31.27773382 84.24991783 28.01020375 84.28091543 24.7421875 84.3125 C22.66667041 84.31903195 20.59114881 84.32428167 18.515625 84.328125 C17.04974945 84.3466452 17.04974945 84.3466452 15.55426025 84.36553955 C6.78053563 84.3368364 6.78053563 84.3368364 3 81 C-0.07544738 76.90001726 -0.41795219 73.42499843 -0.34057617 68.45581055 C-0.34101425 67.71380905 -0.34145233 66.97180756 -0.34190369 66.20732117 C-0.33982191 63.76684807 -0.3165205 61.3270711 -0.29296875 58.88671875 C-0.2873706 57.18992996 -0.28310154 55.49313632 -0.28010559 53.79634094 C-0.26867399 49.33941157 -0.23922143 44.88277742 -0.20599365 40.42596436 C-0.16984823 35.07369843 -0.15612358 29.72133356 -0.13863373 24.36898041 C-0.10958295 16.24578187 -0.05208436 8.12323058 0 0 Z " fill="#454546" transform="translate(292,150)"/>
<path d="M0 0 C5.28 0 10.56 0 16 0 C16.09258111 15.5769284 16.16397071 31.15378543 16.20724869 46.7309227 C16.22787723 53.96361403 16.25600311 61.19613132 16.30175781 68.42871094 C16.341617 74.73237227 16.3674307 81.03590755 16.37635398 87.3396914 C16.38157052 90.67788643 16.3959296 94.01543539 16.42292023 97.35356903 C16.45185375 101.07935689 16.45596005 104.80439176 16.45410156 108.53027344 C16.46848267 109.63798096 16.48286377 110.74568848 16.49768066 111.88696289 C16.49218201 112.90216003 16.48668335 113.91735718 16.48101807 114.96331787 C16.48470524 115.84455196 16.48839241 116.72578606 16.49219131 117.63372421 C16 120 16 120 12 124 C8.04 124 4.08 124 0 124 C0 101.23 0 78.46 0 55 C-4.29 55 -8.58 55 -13 55 C-16 52 -16 52 -16.328125 49.7734375 C-16.30234375 48.98195312 -16.2765625 48.19046875 -16.25 47.375 C-16.23453125 46.57835937 -16.2190625 45.78171875 -16.203125 44.9609375 C-16 43 -16 43 -15 42 C-10.05 42 -5.1 42 0 42 C0 28.14 0 14.28 0 0 Z " fill="#464648" transform="translate(620,141)"/>
<path d="M0 0 C5.28 0 10.56 0 16 0 C16.06946214 15.55967768 16.12299163 31.11931509 16.15543652 46.67911053 C16.17090201 53.90388456 16.19198537 61.12856045 16.22631836 68.35327148 C16.25623055 74.65071596 16.27557732 80.94808936 16.28226548 87.24560291 C16.28617471 90.57978295 16.29693055 93.91371235 16.31719017 97.24783897 C16.3389168 100.97093213 16.34196884 104.69360186 16.34057617 108.41674805 C16.351362 109.52086029 16.36214783 110.62497253 16.3732605 111.76254272 C16.33448556 121.3206361 16.33448556 121.3206361 13 125 C10.15785932 125.94738023 8.32391609 126.13460559 5.375 126.125 C4.18003906 126.12886719 4.18003906 126.12886719 2.9609375 126.1328125 C1 126 1 126 0 125 C-0.09603022 123.3804366 -0.12187855 121.75666917 -0.12025452 120.13426208 C-0.12162918 119.08111816 -0.12300385 118.02797424 -0.12442017 116.94291687 C-0.12082489 115.77766983 -0.11722961 114.61242279 -0.11352539 113.41186523 C-0.11367142 112.19252289 -0.11381744 110.97318054 -0.1139679 109.71688843 C-0.11338893 106.36372489 -0.10835968 103.01062226 -0.10139394 99.65746951 C-0.09515983 96.15674438 -0.09455656 92.65601852 -0.09336853 89.1552887 C-0.09025538 82.52190344 -0.08204222 75.88853459 -0.07201904 69.25515658 C-0.06085739 61.70509793 -0.05534732 54.15503851 -0.05032361 46.60497367 C-0.03985959 31.06997268 -0.02206 15.53498909 0 0 Z " fill="#454547" transform="translate(647,141)"/>
<path d="M0 0 C0.89137382 0.00829614 1.78274763 0.01659227 2.70113277 0.02513981 C4.23036373 0.03569904 4.23036373 0.03569904 5.79048824 0.0464716 C6.91833233 0.05941761 8.04617641 0.07236362 9.20819759 0.08570194 C10.97868969 0.10011326 10.97868969 0.10011326 12.7849493 0.11481571 C16.03070179 0.14222385 19.27637386 0.17411828 22.52206445 0.20796561 C25.91065096 0.24225625 29.29928517 0.2708696 32.68791866 0.30007267 C39.10884186 0.35627698 45.52970535 0.41762295 51.95056337 0.48079401 C59.25875579 0.55244634 66.5669961 0.61840051 73.87524617 0.68386447 C88.91264308 0.81869087 103.94996441 0.96071073 118.98725033 1.10743046 C119.04120511 2.73206888 119.08002228 4.35721587 119.11225033 5.98243046 C119.13545345 6.88735233 119.15865658 7.79227421 119.18256283 8.72461796 C118.98725033 11.10743046 118.98725033 11.10743046 116.98725033 13.10743046 C114.92447567 13.34793949 114.92447567 13.34793949 112.35394955 13.33448124 C111.39310452 13.33433018 110.43225948 13.33417912 109.44229794 13.33402348 C108.4026791 13.3237009 107.36306026 13.31337833 106.29193783 13.30274296 C105.22935757 13.29991306 104.16677731 13.29708317 103.07199764 13.29416752 C99.66863534 13.28294685 96.26553347 13.25783883 92.86225033 13.23243046 C90.5588687 13.2224031 88.25548297 13.21327683 85.95209408 13.20508671 C80.29705687 13.18300139 74.6421722 13.14950534 68.98725033 13.10743046 C68.99772396 13.7028162 69.00819759 14.29820194 69.01898861 14.91162968 C69.06048982 17.60185388 69.08655737 20.29201082 69.11225033 22.98243046 C69.12900814 23.9195789 69.14576595 24.85672733 69.16303158 25.82227421 C69.16947689 26.71817265 69.1759222 27.61407108 69.18256283 28.53711796 C69.19303646 29.36453495 69.20351009 30.19195194 69.21430111 31.04444218 C68.98725033 33.10743046 68.98725033 33.10743046 66.98725033 35.10743046 C63.76459408 35.55664921 63.76459408 35.55664921 59.92475033 35.79493046 C58.65502377 35.88129765 57.3852972 35.96766483 56.07709408 36.05664921 C55.05744564 36.07340702 54.0377972 36.09016483 52.98725033 36.10743046 C51.98725033 35.10743046 51.98725033 35.10743046 51.87372494 32.97437382 C51.87896175 32.05793095 51.88419857 31.14148808 51.88959408 30.19727421 C51.89281673 29.20791874 51.89603939 28.21856327 51.8993597 27.19922733 C51.91192806 25.63785038 51.91192806 25.63785038 51.92475033 24.04493046 C51.92926205 23.0001453 51.93377377 21.95536015 51.9384222 20.87891483 C51.9502512 18.28836386 51.96673344 15.69792487 51.98725033 13.10743046 C50.97580708 13.11076138 50.97580708 13.11076138 49.94393063 13.11415958 C42.95292342 13.13620975 35.96192602 13.15133593 28.97089291 13.1623621 C26.35858414 13.16740422 23.74627821 13.17423771 21.13397884 13.18286991 C17.38844765 13.19494082 13.64295361 13.20065981 9.89740658 13.20508671 C8.72138378 13.21024799 7.54536098 13.21540928 6.33370113 13.22072697 C5.25265606 13.2208025 4.17161098 13.22087803 3.05780697 13.22095585 C2.10072338 13.22317646 1.14363979 13.22539707 0.15755367 13.22768497 C-2.01274967 13.10743046 -2.01274967 13.10743046 -3.01274967 12.10743046 C-3.11126138 10.27627163 -3.14247596 8.44123112 -3.13774967 6.60743046 C-3.1403278 5.60711796 -3.14290592 4.60680546 -3.14556217 3.57618046 C-2.96167699 0.15807943 -2.96167699 0.15807943 0 0 Z " fill="#464648" transform="translate(679.012749671936,203.89256954193115)"/>
<path d="M0 0 C5.61 0 11.22 0 17 0 C17 9.57 17 19.14 17 29 C22.54973121 28.96042519 22.54973121 28.96042519 28.09936523 28.90991211 C30.06645974 28.90276909 32.03353621 28.94968107 34 29 C35 30 35 30 35.1328125 31.99609375 C35.13023437 32.80175781 35.12765625 33.60742188 35.125 34.4375 C35.12886719 35.64212891 35.12886719 35.64212891 35.1328125 36.87109375 C35 39 35 39 34 41 C28.39 41 22.78 41 17 41 C17.05220703 45.02767578 17.05220703 45.02767578 17.10546875 49.13671875 C17.12888222 51.74469948 17.14708859 54.35266838 17.16479492 56.96069336 C17.17985755 58.76966617 17.20031177 60.5786026 17.22631836 62.38745117 C17.2628132 64.99146515 17.27975157 67.5949952 17.29296875 70.19921875 C17.30845261 71.00461594 17.32393646 71.81001312 17.33988953 72.63981628 C17.34126835 77.26694885 16.97446776 80.22405069 14 84 C11.10709479 85.98626275 8.77882042 86.25052401 5.3125 86.1875 C4.52488281 86.18105469 3.73726562 86.17460937 2.92578125 86.16796875 C1 86 1 86 0 85 C-0.09511266 82.35261911 -0.12555635 79.73140999 -0.11352539 77.08374023 C-0.11367142 76.25454071 -0.11381744 75.42534119 -0.1139679 74.5710144 C-0.11326851 71.81684802 -0.10547493 69.06274839 -0.09765625 66.30859375 C-0.09579216 64.40430234 -0.09436822 62.50001045 -0.09336853 60.59571838 C-0.08954263 55.57332037 -0.07971173 50.55095108 -0.06866455 45.52856445 C-0.05845198 40.4077188 -0.05387124 35.28686852 -0.04882812 30.16601562 C-0.03808952 20.1106624 -0.02049215 10.05533808 0 0 Z " fill="#464646" transform="translate(509,141)"/>
<path d="M0 0 C0 3 0 3 -1.9375 5.8125 C-4.05065596 9.07828648 -4.55793547 11.19824507 -5 15 C-5.33 15.33 -5.66 15.66 -6 16 C-5.6801233 18.0021963 -5.34426577 20.00185281 -5 22 C-4.91761843 23.96385729 -4.8821079 25.93008082 -4.88647461 27.8956604 C-4.8865451 29.05086685 -4.8866156 30.2060733 -4.88668823 31.39628601 C-4.89185455 32.64948135 -4.89702087 33.9026767 -4.90234375 35.19384766 C-4.90426465 36.53797856 -4.90572764 37.88211019 -4.9067688 39.22624207 C-4.90992138 42.1121619 -4.91617712 44.99805221 -4.92483521 47.88396072 C-4.93838712 52.44740832 -4.94425773 57.0108462 -4.94897461 61.5743103 C-4.96006008 71.25788661 -4.97960405 80.94143951 -5 90.625 C-5.02202351 101.08671473 -5.04259582 111.54841992 -5.05341816 122.01015317 C-5.05840058 126.54676903 -5.06825985 131.08334025 -5.08184814 135.61993814 C-5.08930477 138.44006856 -5.09262274 141.26019284 -5.0948143 144.0803318 C-5.09758018 146.01181944 -5.10537487 147.94329781 -5.11331177 149.87477112 C-5.11338226 151.02433792 -5.11345276 152.17390472 -5.11352539 153.35830688 C-5.11685631 154.85651443 -5.11685631 154.85651443 -5.12025452 156.38498878 C-5.09907366 158.95118895 -5.09907366 158.95118895 -4.40550232 161.15216637 C-3.69400083 164.39440772 -5.82619308 167.0488846 -7.375 169.8125 C-10.03651685 174.57931826 -11.51399295 178.57754987 -12 184 C-12.66 184 -13.32 184 -14 184 C-16.56178036 177.13882268 -16.28838701 170.369184 -16.2746582 163.11694336 C-16.2790106 161.7100701 -16.28419551 160.3031992 -16.29014587 158.89633179 C-16.3034971 155.08804962 -16.30411839 151.27986696 -16.30158257 147.47156596 C-16.30050924 144.28136485 -16.30540599 141.09118357 -16.310188 137.90098673 C-16.32127192 130.36407035 -16.32172827 122.82720379 -16.31567383 115.2902832 C-16.30964794 107.54629298 -16.32191225 99.8024851 -16.3432439 92.05852598 C-16.36093902 85.38644734 -16.36684847 78.71442629 -16.36360615 72.04232508 C-16.36180414 68.06805722 -16.36431929 64.09391914 -16.37832069 60.11967278 C-16.39102222 56.37424153 -16.38884043 52.6290908 -16.37590981 48.88366318 C-16.37246712 46.87777199 -16.38363337 44.87187175 -16.39547729 42.86601257 C-16.29478704 25.22114768 -12.08408439 12.79911897 0 0 Z " fill="#7FC4E0" transform="translate(50,71)"/>
<path d="M0 0 C1.8871875 -0.02126953 1.8871875 -0.02126953 3.8125 -0.04296875 C7 0.1875 7 0.1875 9 2.1875 C9.28710938 4.31054688 9.28710938 4.31054688 9.34375 6.90625 C9.37339844 7.83824219 9.40304687 8.77023438 9.43359375 9.73046875 C9.47786458 11.70182292 9.52213542 13.67317708 9.56640625 15.64453125 C9.59605469 16.57652344 9.62570312 17.50851563 9.65625 18.46875 C9.68428711 19.75362305 9.68428711 19.75362305 9.71289062 21.06445312 C9.81069411 23.40217113 9.81069411 23.40217113 12 25.1875 C14.95441801 25.52043744 14.95441801 25.52043744 18.46923828 25.50634766 C19.13277313 25.51639328 19.79630798 25.5264389 20.47994995 25.53678894 C22.67672852 25.56771988 24.87338469 25.58468312 27.0703125 25.6015625 C28.59204163 25.62026623 30.11376031 25.63983904 31.63546753 25.6602478 C35.64343105 25.71165924 39.65142823 25.75123649 43.6595459 25.78839111 C47.74837634 25.82837448 51.83706568 25.87949259 55.92578125 25.9296875 C63.95042459 26.02655339 71.97513753 26.11092379 80 26.1875 C80 30.1475 80 34.1075 80 38.1875 C77.0440659 39.66546705 74.04117099 39.34348149 70.79980469 39.34863281 C69.68728584 39.35608017 69.68728584 39.35608017 68.55229187 39.36367798 C66.09214354 39.3783135 63.63205976 39.38510486 61.171875 39.390625 C59.46274819 39.39637653 57.7536214 39.40213427 56.04449463 39.40789795 C52.4565806 39.41841273 48.868689 39.42425186 45.28076172 39.42773438 C40.68965216 39.43321169 36.09884029 39.45722127 31.50782394 39.48570633 C27.97500757 39.50436023 24.4422624 39.50953983 20.90940094 39.51107025 C19.21736275 39.5140925 17.52532568 39.52210659 15.83333588 39.53525543 C13.46125403 39.55236926 11.0898925 39.55042263 8.71777344 39.54394531 C7.67483376 39.55776749 7.67483376 39.55776749 6.61082458 39.5718689 C2.01793976 39.53271302 -1.08479204 38.56678019 -5 36.1875 C-9.06197881 31.84538472 -9.12483509 27.65253996 -9.09765625 21.890625 C-9.09443359 20.68535156 -9.09121094 19.48007813 -9.08789062 18.23828125 C-9.07951172 16.98402344 -9.07113281 15.72976562 -9.0625 14.4375 C-9.05798828 13.16777344 -9.05347656 11.89804688 -9.04882812 10.58984375 C-9.03704556 7.45568164 -9.02059416 4.32161459 -9 1.1875 C-6.02958551 -0.29770725 -3.30235553 0.0169178 0 0 Z " fill="#454547" transform="translate(702,227.8125)"/>
<path d="M0 0 C5.61 0 11.22 0 17 0 C17.04898437 1.78148437 17.09796875 3.56296875 17.1484375 5.3984375 C17.22345483 7.72397463 17.29900309 10.04949468 17.375 12.375 C17.4059375 13.550625 17.436875 14.72625 17.46875 15.9375 C17.50742187 17.05898437 17.54609375 18.18046875 17.5859375 19.3359375 C17.63306885 20.89127197 17.63306885 20.89127197 17.68115234 22.47802734 C17.75954472 25.16809835 17.75954472 25.16809835 20 27 C22.79171088 27.33254247 22.79171088 27.33254247 26.10205078 27.31884766 C28.02381638 27.34865219 28.02381638 27.34865219 29.98440552 27.37905884 C31.38803942 27.39093617 32.79167516 27.40259898 34.1953125 27.4140625 C35.62736131 27.43276692 37.05939902 27.45233978 38.49142456 27.4727478 C42.26264917 27.52415206 46.03390955 27.56373311 49.80529785 27.60089111 C53.65284126 27.640879 57.50023483 27.69199504 61.34765625 27.7421875 C68.89834269 27.83904497 76.4490867 27.92238971 84 28 C84 31.96 84 35.92 84 40 C81.08851102 41.45574449 78.52669487 41.14341873 75.2746582 41.16113281 C74.23770058 41.16858017 74.23770058 41.16858017 73.17979431 41.17617798 C70.88677989 41.19081228 68.59383475 41.19760531 66.30078125 41.203125 C64.70615131 41.20887745 63.11152138 41.21463518 61.51689148 41.22039795 C58.16856565 41.23091294 54.82026385 41.23675167 51.47192383 41.24023438 C47.1925418 41.24570608 42.91348006 41.26970338 38.63419819 41.29820633 C35.33724561 41.31688567 32.04036916 41.32204122 28.74336815 41.32357025 C27.16658982 41.32658772 25.58981254 41.33458554 24.01308632 41.34775543 C21.79925301 41.36491977 19.58618834 41.36291039 17.37231445 41.35644531 C16.11481888 41.36009094 14.8573233 41.36373657 13.5617218 41.36749268 C8.60785602 40.85636084 4.4518961 39.66872933 1.08081055 35.79418945 C-0.29171464 32.24583824 -0.37627285 29.03764394 -0.29296875 25.29296875 C-0.28872391 24.56757401 -0.28447906 23.84217926 -0.28010559 23.09480286 C-0.26339543 20.79198109 -0.2257596 18.49005447 -0.1875 16.1875 C-0.17244316 14.6204554 -0.1587565 13.053397 -0.14648438 11.48632812 C-0.11607628 7.65693497 -0.05734635 3.82946205 0 0 Z " fill="#464648" transform="translate(441,226)"/>
<path d="M0 0 C0 0.99 0 1.98 0 3 C-1.11375 3.226875 -2.2275 3.45375 -3.375 3.6875 C-7.15803884 4.57663988 -7.15803884 4.57663988 -8.1875 7.5 C-8.455625 8.325 -8.72375 9.15 -9 10 C-11.51247366 11.67498244 -14.06302123 12.37064741 -17 13 C-16.79375 13.763125 -16.5875 14.52625 -16.375 15.3125 C-16 18 -16 18 -18 21 C-19.37243334 27.44889464 -19.13367315 33.97837069 -19.11352539 40.54467773 C-19.11367142 41.79415695 -19.11381744 43.04363617 -19.1139679 44.33097839 C-19.11339257 47.73957012 -19.10839373 51.14810051 -19.10139394 54.55668139 C-19.09512245 58.12543731 -19.09455361 61.69419413 -19.09336853 65.26295471 C-19.09026638 72.01301277 -19.08206808 78.76305455 -19.07201904 85.51310545 C-19.06082319 93.20114827 -19.05533872 100.88919188 -19.05032361 108.57724082 C-19.03988449 124.38483663 -19.02230673 140.19241621 -19 156 C-18.01 156 -17.02 156 -16 156 C-17.43308135 159.95906817 -19.33141949 163.28718181 -21.625 166.8125 C-22.25664063 167.78832031 -22.88828125 168.76414063 -23.5390625 169.76953125 C-24.26222656 170.87361328 -24.26222656 170.87361328 -25 172 C-25.99 171.67 -26.98 171.34 -28 171 C-27.99861731 169.94423893 -27.99861731 169.94423893 -27.99720669 168.86714935 C-27.97510063 151.72330216 -27.95856366 134.57945859 -27.94818783 117.43560028 C-27.9430365 109.14488716 -27.93601599 100.85418357 -27.92456055 92.56347656 C-27.91457815 85.3354029 -27.90813811 78.10733614 -27.90591151 70.87925577 C-27.90461044 67.05378776 -27.90156286 63.22833948 -27.89426994 59.40287781 C-27.8874536 55.79799811 -27.88539442 52.19314618 -27.88689232 48.58826065 C-27.88648852 46.64317723 -27.88112269 44.6980968 -27.87557983 42.75302124 C-27.88131256 37.86483503 -27.8959188 33.11504728 -28.63209534 28.27648926 C-28.75350388 27.1952478 -28.87491241 26.11400635 -29 25 C-28.34 24.34 -27.68 23.68 -27 23 C-26.855625 22.401875 -26.71125 21.80375 -26.5625 21.1875 C-24.30136905 12.39421298 -17.0699122 6.91820384 -9.73828125 2.4140625 C-6.32244189 0.65010551 -3.81341095 0.08474247 0 0 Z " fill="#BDDFEF" transform="translate(72,60)"/>
<path d="M0 0 C6.10591132 2.46860086 11.28307194 7.65658796 15.51098633 12.61450195 C17.67858074 14.48664444 19.41302934 14.81112182 22.2109375 15.38671875 C23.72747925 15.71627563 23.72747925 15.71627563 25.2746582 16.05249023 C26.90213989 16.39775757 26.90213989 16.39775757 28.5625 16.75 C66.7647105 25.40710715 66.7647105 25.40710715 77.75 38 C79.1875 41.0625 79.1875 41.0625 80.03125 44.9296875 C81.12673171 47.87626019 81.90951484 48.8901397 84.61499023 50.56762695 C87.75036849 51.92496141 90.90194888 53.11655721 94.125 54.25 C96.30568468 55.04262702 98.48172003 55.84819079 100.65234375 56.66796875 C101.617771 57.00981201 102.58319824 57.35165527 103.57788086 57.70385742 C106.73233883 59.34615872 108.22689025 61.11918233 110.1875 64.0625 C111.6324511 71.14276038 107.78141219 77.19030419 104.1875 83.0625 C87.71986901 105.53395479 49.30362984 109.50776143 24.1875 114.0625 C24.1875 113.4025 24.1875 112.7425 24.1875 112.0625 C45.03856383 104.0625 45.03856383 104.0625 52.1875 104.0625 C52.1875 103.0725 52.1875 102.0825 52.1875 101.0625 C53.62284841 100.8398254 55.06095525 100.63488094 56.5 100.4375 C57.30050781 100.32148438 58.10101563 100.20546875 58.92578125 100.0859375 C61.1875 100.0625 61.1875 100.0625 64.1875 102.0625 C64.1875 101.4025 64.1875 100.7425 64.1875 100.0625 C65.46625 99.98 66.745 99.8975 68.0625 99.8125 C70.24210815 99.58889514 70.24210815 99.58889514 72.1875 99.0625 C73.7471445 97.27741214 73.7471445 97.27741214 74.1875 95.0625 C74.6825 93.5775 74.6825 93.5775 75.1875 92.0625 C75.80625 92.248125 76.425 92.43375 77.0625 92.625 C79.22910178 93.29936176 79.22910178 93.29936176 81.1875 92.0625 C82.6725 92.5575 82.6725 92.5575 84.1875 93.0625 C87.36919754 92.18083745 87.36919754 92.18083745 90.1875 90.0625 C91.51926975 86.65130932 91.51926975 86.65130932 92.1875 83.0625 C93.29885887 79.72842338 94.00931946 79.16865011 97.125 77.3125 C100.1875 76.0625 100.1875 76.0625 103.1875 76.0625 C105.7337039 73.5162961 106.36575915 71.5548986 107.1875 68.0625 C106.37221888 64.86484053 105.8450715 63.45820674 102.98046875 61.734375 C102.12066406 61.43015625 101.26085937 61.1259375 100.375 60.8125 C99.52292969 60.49796875 98.67085938 60.1834375 97.79296875 59.859375 C95.18789526 59.0042704 95.18789526 59.0042704 92.42578125 58.578125 C91.68714844 58.40796875 90.94851562 58.2378125 90.1875 58.0625 C89.8575 57.4025 89.5275 56.7425 89.1875 56.0625 C87.21166285 55.32730478 85.20572402 54.67177518 83.1875 54.0625 C81.16927598 53.45322482 79.16333715 52.79769522 77.1875 52.0625 C76.8575 51.4025 76.5275 50.7425 76.1875 50.0625 C75.5275 49.7325 74.8675 49.4025 74.1875 49.0625 C74.8475 47.4125 75.5075 45.7625 76.1875 44.0625 C75.5275 44.0625 74.8675 44.0625 74.1875 44.0625 C74.125625 43.11375 74.06375 42.165 74 41.1875 C73.5978125 39.640625 73.5978125 39.640625 73.1875 38.0625 C70.29808309 36.38967969 68.5283643 36.0625 65.1875 36.0625 C64.5275 35.4025 63.8675 34.7425 63.1875 34.0625 C60.58469432 34.38291397 60.58469432 34.38291397 58.1875 35.0625 C58.39375 34.44375 58.6 33.825 58.8125 33.1875 C58.998125 32.135625 58.998125 32.135625 59.1875 31.0625 C56.42457164 28.29957164 53.979622 27.88412643 50.1875 27.0625 C46.96638408 27.44583662 46.96638408 27.44583662 44.1875 28.0625 C42.1875 27.0625 42.1875 27.0625 40.1875 24.0625 C39.1975 24.0625 38.2075 24.0625 37.1875 24.0625 C37.1875 23.4025 37.1875 22.7425 37.1875 22.0625 C36.1975 22.3925 35.2075 22.7225 34.1875 23.0625 C33.6925 22.0725 33.6925 22.0725 33.1875 21.0625 C25.87448064 19.84366344 18.58419343 19.95960937 11.1875 20.0625 C10.42463764 16.65504812 10.07082721 14.41251838 11.1875 11.0625 C10.5275 11.0625 9.8675 11.0625 9.1875 11.0625 C7.61791807 9.38528959 6.2394475 7.59455886 4.8203125 5.7890625 C0.95758691 1.70455362 -3.45810196 1.48745223 -8.8125 1.0625 C-9.8025 1.3925 -10.7925 1.7225 -11.8125 2.0625 C-12.1425 1.4025 -12.4725 0.7425 -12.8125 0.0625 C-8.63864239 -2.0244288 -4.37579683 -1.07601561 0 0 Z " fill="#48A4BC" transform="translate(117.8125,35.9375)"/>
<path d="M0 0 C1.125 1.5625 1.125 1.5625 2 4 C1.125 7.75 1.125 7.75 0 11 C0.66 11.33 1.32 11.66 2 12 C1.83956207 12.50611313 1.67912415 13.01222626 1.51382446 13.53367615 C0.82516445 16.83919923 0.81396625 20.09916744 0.77880859 23.46118164 C0.7673027 24.20843506 0.75579681 24.95568848 0.74394226 25.72558594 C0.70720346 28.20373444 0.67752996 30.68190696 0.6484375 33.16015625 C0.62527087 34.90580026 0.60188029 36.6514413 0.57827759 38.39707947 C0.52975938 42.0731995 0.48488966 45.74934284 0.44238281 49.42553711 C0.399081 53.14242345 0.35067027 56.85917854 0.296875 60.57592773 C-0.00948298 81.75297876 -0.14072818 102.84203867 1 124 C1.33 124 1.66 124 2 124 C1.98839844 124.88042969 1.97679687 125.76085937 1.96484375 126.66796875 C1.95582031 127.82941406 1.94679688 128.99085938 1.9375 130.1875 C1.92589844 131.33605469 1.91429687 132.48460937 1.90234375 133.66796875 C1.98851782 136.60822815 2.38295459 139.13958793 3 142 C3.43659711 149.12680578 3.43659711 149.12680578 2 152 C2.66 152 3.32 152 4 152 C3.69255859 152.85271484 3.69255859 152.85271484 3.37890625 153.72265625 C1.70907331 158.5084454 0.53623064 162.95943201 0 168 C-0.66 168 -1.32 168 -2 168 C-4.56178036 161.13882268 -4.28838701 154.369184 -4.2746582 147.11694336 C-4.2790106 145.7100701 -4.28419551 144.3031992 -4.29014587 142.89633179 C-4.3034971 139.08804962 -4.30411839 135.27986696 -4.30158257 131.47156596 C-4.30050924 128.28136485 -4.30540599 125.09118357 -4.310188 121.90098673 C-4.32127192 114.36407035 -4.32172827 106.82720379 -4.31567383 99.2902832 C-4.30964794 91.54629298 -4.32191225 83.8024851 -4.3432439 76.05852598 C-4.36093902 69.38644734 -4.36684847 62.71442629 -4.36360615 56.04232508 C-4.36180414 52.06805722 -4.36431929 48.09391914 -4.37832069 44.11967278 C-4.39102222 40.37424153 -4.38884043 36.6290908 -4.37590981 32.88366318 C-4.37246712 30.87777199 -4.38363337 28.87187175 -4.39547729 26.86601257 C-4.34537677 18.08644365 -4.00678885 8.01357769 0 0 Z " fill="#5AAFCF" transform="translate(38,87)"/>
<path d="M0 0 C1.02158674 3.06476022 0.98389514 4.24606277 0.5668335 7.34973145 C-0.14825283 13.71017284 -0.11270161 20.01020802 -0.06933594 26.40429688 C-0.06454727 27.70952301 -0.05975861 29.01474915 -0.05482483 30.35952759 C-0.04129669 33.90858392 -0.02085643 37.45756558 0.00174046 41.00657463 C0.0156672 43.22547324 0.02828233 45.4443756 0.0404892 47.6632843 C0.0833836 55.40740504 0.13266534 63.15145941 0.18701172 70.89550781 C0.23746324 78.11312855 0.27256268 85.33071957 0.30094552 92.54845762 C0.32611542 98.75509132 0.36268059 104.96159154 0.40803123 111.16811037 C0.43485164 114.87139797 0.45684113 118.57456499 0.46704865 122.27793884 C0.47879036 126.39580911 0.51413368 130.51314433 0.55175781 134.63085938 C0.55189377 135.86095734 0.55202972 137.0910553 0.5521698 138.35842896 C0.57314476 140.03212051 0.57314476 140.03212051 0.59454346 141.73962402 C0.60340513 143.19961948 0.60340513 143.19961948 0.61244583 144.6891098 C0.74033871 145.45170357 0.86823158 146.21429733 1 147 C1.99 147.66 2.98 148.32 4 149 C2.35 151.64 0.7 154.28 -1 157 C-1.99 156.67 -2.98 156.34 -4 156 C-3.99861731 154.94423893 -3.99861731 154.94423893 -3.99720669 153.86714935 C-3.97510063 136.72330216 -3.95856366 119.57945859 -3.94818783 102.43560028 C-3.9430365 94.14488716 -3.93601599 85.85418357 -3.92456055 77.56347656 C-3.91457815 70.3354029 -3.90813811 63.10733614 -3.90591151 55.87925577 C-3.90461044 52.05378776 -3.90156286 48.22833948 -3.89426994 44.40287781 C-3.8874536 40.79799811 -3.88539442 37.19314618 -3.88689232 33.58826065 C-3.88648852 31.64317723 -3.88112269 29.6980968 -3.87557983 27.75302124 C-3.88131256 22.86483503 -3.8959188 18.11504728 -4.63209534 13.27648926 C-4.75350388 12.1952478 -4.87491241 11.11400635 -5 10 C-4.34 9.34 -3.68 8.68 -3 8 C-2.64587656 6.67203709 -2.31478446 5.33783393 -2 4 C-1.36345658 2.6520257 -0.70394612 1.31403276 0 0 Z " fill="#9AD0E6" transform="translate(48,75)"/>
<path d="M0 0 C1.485 0.99 1.485 0.99 3 2 C5.15274948 1.69159401 5.15274948 1.69159401 7 1 C7.061875 1.94875 7.12375 2.8975 7.1875 3.875 C7.455625 4.90625 7.72375 5.9375 8 7 C11.75062157 9.04696216 15.04812967 9.25545648 19.26792908 9.27174377 C20.53249435 9.2814621 21.79705963 9.29118042 23.09994507 9.30119324 C24.494934 9.30196353 25.88992303 9.3025525 27.28491211 9.30297852 C28.76092491 9.31064538 30.23693336 9.31919283 31.7129364 9.32855225 C34.89454057 9.3468317 38.07608598 9.35887149 41.2577343 9.36609077 C46.33037915 9.37765117 51.40289777 9.4031588 56.47547913 9.43040466 C64.54736145 9.47210969 72.61925032 9.50445995 80.69118935 9.53287882 C95.01379171 9.58346982 109.33633193 9.64743901 123.65884787 9.71821922 C128.65649305 9.74252824 133.65412568 9.76211778 138.65180522 9.77771968 C161.44635069 9.85239306 184.2159691 10.30724004 207 11 C207 11.33 207 11.66 207 12 C181.58297631 12.09345925 156.16597838 12.1639871 130.74881744 12.20724869 C118.94706985 12.22787009 107.14542905 12.25598278 95.34375 12.30175781 C85.05688833 12.34163831 74.770104 12.36743588 64.48316717 12.37635398 C59.03676115 12.38156663 53.59057641 12.39380976 48.14424133 12.42292023 C43.01592674 12.45010832 37.88792419 12.45843805 32.75954437 12.45243073 C30.87942051 12.45352944 28.999286 12.46146301 27.11922455 12.4768219 C24.54675422 12.49680313 21.97545301 12.49190992 19.4029541 12.48101807 C18.66363097 12.49266943 17.92430783 12.5043208 17.16258097 12.51632524 C11.05928798 12.44675371 5.91377024 10.60196854 1.31798029 6.49797273 C-0.26146294 4.70282989 -0.6861014 3.3542395 -1 1 C-0.67 0.67 -0.34 0.34 0 0 Z " fill="#102F58" transform="translate(39,255)"/>
<path d="M0 0 C0.99 0.33 1.98 0.66 3 1 C2.8595017 3.7920301 2.71284617 6.58349796 2.5625 9.375 C2.50352539 10.56609375 2.50352539 10.56609375 2.44335938 11.78125 C2.11328125 17.7734375 2.11328125 17.7734375 1 20 C1.32478986 21.66835261 1.66009983 23.33466017 2 25 C2.11838637 27.39127323 2.18619547 29.78525304 2.22119141 32.17919922 C2.23845024 33.23678436 2.23845024 33.23678436 2.25605774 34.31573486 C2.29269255 36.6453422 2.32242229 38.97497517 2.3515625 41.3046875 C2.37473198 42.94638369 2.39812256 44.58807678 2.42172241 46.22976685 C2.47017861 49.68130137 2.51506428 53.1328605 2.55761719 56.58447266 C2.6010214 60.07935704 2.6494574 63.57410589 2.703125 67.06884766 C2.99493953 86.0798676 3.20470925 105.01124601 2 124 C0.515 124.495 0.515 124.495 -1 125 C-1.98824092 101.75921469 -2.02348274 78.59711654 -1.66339111 55.34161377 C-1.61128574 51.82421104 -1.56821997 48.30671855 -1.52509499 44.78919601 C-1.48237945 41.37657328 -1.43496164 37.9640291 -1.38599777 34.55149078 C-1.36321817 32.935984 -1.34169595 31.32045895 -1.32149124 29.70491791 C-1.29273374 27.47472873 -1.25783619 25.24472012 -1.22119141 23.01464844 C-1.20263092 21.75215271 -1.18407043 20.48965698 -1.16494751 19.18890381 C-1.03041234 16.58795697 -0.64986664 14.49114765 0 12 C-0.33 11.67 -0.66 11.34 -1 11 C-1.17423601 7.16680771 -0.87803368 3.73164314 0 0 Z " fill="#68BADA" transform="translate(39,87)"/>
<path d="M0 0 C2.24570495 3.36855743 2.25634131 4.50481061 2.2784729 8.44792175 C2.28963638 9.57954239 2.30079987 10.71116302 2.31230164 11.8770752 C2.31446182 13.11928833 2.31662201 14.36150146 2.31884766 15.64135742 C2.32889328 16.94877396 2.3389389 18.25619049 2.34928894 19.60322571 C2.37662172 23.18969804 2.39174799 26.77613102 2.40471697 30.3626802 C2.42033322 34.1103478 2.44712821 37.85793488 2.4727478 41.60554504 C2.51956233 48.70277473 2.55629346 55.80001953 2.58942068 62.89732486 C2.62762321 70.97709692 2.67703824 79.05678816 2.72740483 87.13649213 C2.83076444 103.7576034 2.92001169 120.37875948 3 137 C4.65 137 6.3 137 8 137 C6.125 141.75 6.125 141.75 5 144 C3.35 143.67 1.7 143.34 0 143 C-0.15391005 124.94578119 -0.30194309 106.89152423 -0.4429636 88.83720016 C-0.50857788 80.45442951 -0.57612137 72.07168267 -0.64819336 63.68896484 C-0.71100017 56.3833158 -0.77020068 49.07764799 -0.82505554 41.77193475 C-0.8542319 37.90297955 -0.88522431 34.03405799 -0.92053413 30.1651535 C-0.95370656 26.52420379 -0.98205971 22.88324847 -1.00670624 19.24223137 C-1.02132963 17.26772621 -1.04107249 15.29326105 -1.06095886 13.31880188 C-1.06799835 12.14373581 -1.07503784 10.96866974 -1.08229065 9.75799561 C-1.09058679 8.73664898 -1.09888292 7.71530235 -1.10743046 6.66300583 C-1.01098917 4.27240163 -0.68835444 2.28144271 0 0 Z " fill="#ACD9EA" transform="translate(48,79)"/>
<path d="M0 0 C0.99 0.33 1.98 0.66 3 1 C2.67 1.66 2.34 2.32 2 3 C1.91472372 5.03232634 1.89283865 7.06747006 1.90234375 9.1015625 C1.90556641 10.31328125 1.90878906 11.525 1.91210938 12.7734375 C1.92048828 14.04445312 1.92886719 15.31546875 1.9375 16.625 C1.94201172 17.90375 1.94652344 19.1825 1.95117188 20.5 C1.96298797 23.66671292 1.97946185 26.83333356 2 30 C2.66 30.33 3.32 30.66 4 31 C3.505 32.485 3.505 32.485 3 34 C3.66 34 4.32 34 5 34 C5.33 35.32 5.66 36.64 6 38 C31.08 38 56.16 38 82 38 C82 35.03 82 32.06 82 29 C82.99 28.505 82.99 28.505 84 28 C84 31.96 84 35.92 84 40 C81.08851102 41.45574449 78.52669487 41.14341873 75.2746582 41.16113281 C74.23770058 41.16858017 74.23770058 41.16858017 73.17979431 41.17617798 C70.88677989 41.19081228 68.59383475 41.19760531 66.30078125 41.203125 C64.70615131 41.20887745 63.11152138 41.21463518 61.51689148 41.22039795 C58.16856565 41.23091294 54.82026385 41.23675167 51.47192383 41.24023438 C47.1925418 41.24570608 42.91348006 41.26970338 38.63419819 41.29820633 C35.33724561 41.31688567 32.04036916 41.32204122 28.74336815 41.32357025 C27.16658982 41.32658772 25.58981254 41.33458554 24.01308632 41.34775543 C21.79925301 41.36491977 19.58618834 41.36291039 17.37231445 41.35644531 C16.11481888 41.36009094 14.8573233 41.36373657 13.5617218 41.36749268 C8.60785602 40.85636084 4.4518961 39.66872933 1.08081055 35.79418945 C-0.29171464 32.24583824 -0.37627285 29.03764394 -0.29296875 25.29296875 C-0.28872391 24.56757401 -0.28447906 23.84217926 -0.28010559 23.09480286 C-0.26339543 20.79198109 -0.2257596 18.49005447 -0.1875 16.1875 C-0.17244316 14.6204554 -0.1587565 13.053397 -0.14648438 11.48632812 C-0.11351731 7.65721043 -0.06178992 3.82875666 0 0 Z " fill="#353437" transform="translate(441,226)"/>
<path d="M0 0 C0.99 0.495 0.99 0.495 2 1 C2 9.58 2 18.16 2 27 C2.66 27.33 3.32 27.66 4 28 C4.625 30.0625 4.625 30.0625 5 32 C5.66 32 6.32 32 7 32 C7 32.66 7 33.32 7 34 C17.24846497 34.06945033 27.49687413 34.12278596 37.74552631 34.15543652 C42.50418205 34.1711056 47.26267703 34.19236649 52.02124023 34.22631836 C56.61183952 34.25886758 61.20228398 34.27684365 65.79298973 34.28463173 C67.5461286 34.29018323 69.29925881 34.30102375 71.05233192 34.31719017 C73.50423246 34.33890575 75.95548978 34.34196943 78.4074707 34.34057617 C79.49935448 34.35675491 79.49935448 34.35675491 80.61329651 34.3732605 C84.58501926 34.36085954 84.58501926 34.36085954 87.97453308 32.47871399 C88.31293716 31.99073837 88.65134125 31.50276276 89 31 C89 32.65 89 34.3 89 36 C86.0440659 37.47796705 83.04117099 37.15598149 79.79980469 37.16113281 C78.68728584 37.16858017 78.68728584 37.16858017 77.55229187 37.17617798 C75.09214354 37.1908135 72.63205976 37.19760486 70.171875 37.203125 C68.46274819 37.20887653 66.7536214 37.21463427 65.04449463 37.22039795 C61.4565806 37.23091273 57.868689 37.23675186 54.28076172 37.24023438 C49.68965216 37.24571169 45.09884029 37.26972127 40.50782394 37.29820633 C36.97500757 37.31686023 33.4422624 37.32203983 29.90940094 37.32357025 C28.21736275 37.3265925 26.52532568 37.33460659 24.83333588 37.34775543 C22.46125403 37.36486926 20.0898925 37.36292263 17.71777344 37.35644531 C16.67483376 37.37026749 16.67483376 37.37026749 15.61082458 37.3843689 C11.01793976 37.34521302 7.91520796 36.37928019 4 34 C-0.00349057 29.72040663 -0.12550544 25.60310924 -0.09765625 19.921875 C-0.09443359 18.76171875 -0.09121094 17.6015625 -0.08789062 16.40625 C-0.07951172 15.1996875 -0.07113281 13.993125 -0.0625 12.75 C-0.05798828 11.52796875 -0.05347656 10.3059375 -0.04882812 9.046875 C-0.03704815 6.03120054 -0.02059853 3.01562502 0 0 Z " fill="#323137" transform="translate(693,230)"/>
<path d="M0 0 C0.33 0.66 0.66 1.32 1 2 C1.66 2.33 2.32 2.66 3 3 C2.67 3.33 2.34 3.66 2 4 C1.67 6.31 1.34 8.62 1 11 C27.73 10.505 27.73 10.505 55 10 C55 10.66 55 11.32 55 12 C55.66 12 56.32 12 57 12 C57 18.6 57 25.2 57 32 C60.74691447 33.39770584 60.74691447 33.39770584 63 32 C64.66666667 32 66.33333333 32 68 32 C68.99 31.67 69.98 31.34 71 31 C70.44140625 32.94921875 70.44140625 32.94921875 69 35 C65.77734375 35.64453125 65.77734375 35.64453125 61.9375 35.8125 C60.66777344 35.88082031 59.39804687 35.94914062 58.08984375 36.01953125 C55 36 55 36 54 35 C53.91299658 33.36527118 53.89298937 31.72685945 53.90234375 30.08984375 C53.90556641 29.10048828 53.90878906 28.11113281 53.91210938 27.09179688 C53.92467773 25.53041992 53.92467773 25.53041992 53.9375 23.9375 C53.94201172 22.89271484 53.94652344 21.84792969 53.95117188 20.77148438 C53.96300087 18.1809334 53.97948311 15.59049441 54 13 C52.98855675 13.00333092 52.98855675 13.00333092 51.9566803 13.00672913 C44.96567309 13.02877929 37.97467569 13.04390547 30.98364258 13.05493164 C28.37133381 13.05997377 25.75902789 13.06680725 23.14672852 13.07543945 C19.40119732 13.08751036 15.65570328 13.09322935 11.91015625 13.09765625 C10.73413345 13.10281754 9.55811066 13.10797882 8.34645081 13.11329651 C7.26540573 13.11337204 6.18436066 13.11344757 5.07055664 13.11352539 C4.11347305 13.115746 3.15638947 13.11796661 2.17030334 13.12025452 C0 13 0 13 -1 12 C-1.09851171 10.16884117 -1.12972629 8.33380067 -1.125 6.5 C-1.12757813 5.4996875 -1.13015625 4.499375 -1.1328125 3.46875 C-1 1 -1 1 0 0 Z " fill="#3B3B3C" transform="translate(677,204)"/>
<path d="M0 0 C3.31248187 -0.02888146 6.62493167 -0.04675799 9.9375 -0.0625 C10.88302734 -0.07087891 11.82855469 -0.07925781 12.80273438 -0.08789062 C14.15141602 -0.09272461 14.15141602 -0.09272461 15.52734375 -0.09765625 C16.77632446 -0.10551147 16.77632446 -0.10551147 18.05053711 -0.11352539 C20 0 20 0 21 1 C20.63228438 6.79152098 20.63228438 6.79152098 20 9 C16.91111478 11.05925681 16.29064073 11.2390374 12.8125 11.125 C10.9253125 11.063125 10.9253125 11.063125 9 11 C9.63228516 12.03060547 9.63228516 12.03060547 10.27734375 13.08203125 C10.82519531 13.98308594 11.37304688 14.88414062 11.9375 15.8125 C12.48277344 16.70582031 13.02804687 17.59914062 13.58984375 18.51953125 C16.10363208 22.94129189 16.1225321 26.74177854 16.0625 31.6875 C16.05798828 32.38939453 16.05347656 33.09128906 16.04882812 33.81445312 C16.03706927 35.54300538 16.01913454 37.27151365 16 39 C15.34 39 14.68 39 14 39 C13.92652344 37.69675781 13.92652344 37.69675781 13.8515625 36.3671875 C13.77679688 35.21476562 13.70203125 34.06234375 13.625 32.875 C13.55539062 31.73804688 13.48578125 30.60109375 13.4140625 29.4296875 C12.84448612 24.71187561 11.93390321 21.16030399 8.9375 17.4375 C6.86830553 14.83431987 6.17842902 13.30093682 6 10 C6.66 9.34 7.32 8.68 8 8 C9.671549 8.30791692 11.33805547 8.64386903 13 9 C15.21858253 8.86358623 15.21858253 8.86358623 17 8 C17.33 7.01 17.66 6.02 18 5 C14.70039859 3.3501993 11.00872116 3.61741639 7.375 3.4375 C6.57320313 3.39431641 5.77140625 3.35113281 4.9453125 3.30664062 C2.9637489 3.20048543 0.98189729 3.09973145 -1 3 C-0.67 2.01 -0.34 1.02 0 0 Z " fill="#3D3D3F" transform="translate(475,152)"/>
<path d="M0 0 C2.02408755 0.09002398 4.04544287 0.24641038 6.0625 0.4375 C7.71958984 0.59025391 7.71958984 0.59025391 9.41015625 0.74609375 C10.26480469 0.82988281 11.11945313 0.91367188 12 1 C11.67 1.66 11.34 2.32 11 3 C8.0170339 3.59772099 5.03669195 3.74337815 2 4 C1.67 7.63 1.34 11.26 1 15 C-3.36212648 16.74485059 -5.10195471 17.2446709 -9.51953125 17.1953125 C-11.0519043 17.18564453 -11.0519043 17.18564453 -12.61523438 17.17578125 C-13.67033203 17.15902344 -14.72542969 17.14226562 -15.8125 17.125 C-16.88693359 17.11597656 -17.96136719 17.10695312 -19.06835938 17.09765625 C-21.71246854 17.07415306 -24.35611872 17.04129575 -27 17 C-27 17.66 -27 18.32 -27 19 C-27 20.32 -27 21.64 -27 23 C-24.69 23.66 -22.38 24.32 -20 25 C-23.57644848 26.2380014 -26.33694766 25.74926071 -30 25 C-30.02688151 23.35425434 -30.04634123 21.70838587 -30.0625 20.0625 C-30.07410156 19.14597656 -30.08570313 18.22945312 -30.09765625 17.28515625 C-30 15 -30 15 -29 14 C-26.92737924 13.91232888 -24.85179706 13.89304127 -22.77734375 13.90234375 C-21.51728516 13.90556641 -20.25722656 13.90878906 -18.95898438 13.91210938 C-17.61848891 13.92046597 -16.27799412 13.92893093 -14.9375 13.9375 C-13.59310058 13.9425134 -12.2486994 13.94707658 -10.90429688 13.95117188 C-7.60282059 13.96300512 -4.30143197 13.97949029 -1 14 C-1.01160156 13.07316406 -1.02320313 12.14632812 -1.03515625 11.19140625 C-1.04417969 9.99386719 -1.05320312 8.79632813 -1.0625 7.5625 C-1.07410156 6.36753906 -1.08570313 5.17257813 -1.09765625 3.94140625 C-1 1 -1 1 0 0 Z " fill="#3D3D3E" transform="translate(450,138)"/>
<path d="M0 0 C6.06582304 2.4523933 11.31920502 7.61692776 15.46484375 12.59692383 C17.8161752 14.59735504 19.94905441 14.98265202 22.94921875 15.66796875 C24.62661133 16.05952148 24.62661133 16.05952148 26.33789062 16.45898438 C27.50513672 16.72001953 28.67238281 16.98105469 29.875 17.25 C31.05384766 17.52263672 32.23269531 17.79527344 33.44726562 18.07617188 C36.3585922 18.74801647 39.27185742 19.40968747 42.1875 20.0625 C42.1875 20.3925 42.1875 20.7225 42.1875 21.0625 C37.70906707 21.13358624 33.37993621 21.14768176 28.9375 20.5625 C23.0367388 19.81835427 17.12417919 19.97991868 11.1875 20.0625 C10.42463764 16.65504812 10.07082721 14.41251838 11.1875 11.0625 C10.5275 11.0625 9.8675 11.0625 9.1875 11.0625 C7.61791807 9.38528959 6.2394475 7.59455886 4.8203125 5.7890625 C0.95758691 1.70455362 -3.45810196 1.48745223 -8.8125 1.0625 C-9.8025 1.3925 -10.7925 1.7225 -11.8125 2.0625 C-12.1425 1.4025 -12.4725 0.7425 -12.8125 0.0625 C-8.63864239 -2.0244288 -4.37579683 -1.07601561 0 0 Z " fill="#54ACC4" transform="translate(117.8125,35.9375)"/>
<path d="M0 0 C0.54839539 0.64874084 1.09679077 1.29748169 1.6618042 1.96588135 C4.48997432 4.42625425 5.71683608 4.5113723 9.41113281 4.54589844 C10.49195129 4.56561707 11.57276978 4.58533569 12.68634033 4.60565186 C13.84687927 4.60688049 15.00741821 4.60810913 16.203125 4.609375 C17.39605164 4.62591125 18.58897827 4.64244751 19.8180542 4.65948486 C23.6287546 4.7080753 27.4390556 4.72936138 31.25 4.75 C33.83335355 4.77815027 36.4166884 4.80807635 39 4.83984375 C45.33326056 4.91383747 51.66640828 4.96541527 58 5 C56.33536812 7.04559682 55.46203716 7.92364455 52.81697083 8.36076355 C51.54789131 8.3507708 51.54789131 8.3507708 50.25317383 8.34057617 C49.29240433 8.34034958 48.33163483 8.34012299 47.3417511 8.33988953 C46.30729355 8.32440567 45.272836 8.30892181 44.20703125 8.29296875 C43.14586594 8.28872391 42.08470062 8.28447906 40.99137878 8.28010559 C37.59816235 8.26329706 34.20553728 8.22564019 30.8125 8.1875 C28.51368044 8.172456 26.21485159 8.15876711 23.91601562 8.14648438 C18.27714158 8.11338645 12.63861303 8.0631653 7 8 C7 7.34 7 6.68 7 6 C6.4225 6.2475 5.845 6.495 5.25 6.75 C4.5075 6.8325 3.765 6.915 3 7 C0.75 5.0625 0.75 5.0625 -1 3 C-0.67 2.01 -0.34 1.02 0 0 Z " fill="#3E3D3D" transform="translate(457,249)"/>
<path d="M0 0 C0.99 0.33 1.98 0.66 3 1 C-0.56184227 5.79122518 -4.71455634 9.03587109 -9.44140625 12.62109375 C-12.22435207 15.20859605 -13.42029743 17.58131236 -15 21 C-16.31647119 21.69937532 -17.65022151 22.36729133 -19 23 C-20.75322937 25.53188648 -20.75322937 25.53188648 -22 28 C-21.34 28 -20.68 28 -20 28 C-20.33 28.99 -20.66 29.98 -21 31 C-21.99 31.33 -22.98 31.66 -24 32 C-23.67 32.66 -23.34 33.32 -23 34 C-23.66 34.66 -24.32 35.32 -25 36 C-25.66 36 -26.32 36 -27 36 C-27.61875 37.093125 -28.2375 38.18625 -28.875 39.3125 C-30.17899562 41.6162256 -31.52774699 43.79162049 -33 46 C-33.66 45.67 -34.32 45.34 -35 45 C-34.45899282 40.41834542 -32.64349059 37.61076622 -30 33.875 C-29.59990723 33.30950439 -29.19981445 32.74400879 -28.78759766 32.16137695 C-24.77930929 26.56435168 -20.45700861 21.24498804 -16 16 C-15.39285156 15.26910156 -14.78570312 14.53820312 -14.16015625 13.78515625 C-10.14535705 9.04204881 -5.74974002 4.99673246 -1 1 C-0.67 0.67 -0.34 0.34 0 0 Z " fill="#0A2F56" transform="translate(84,186)"/>
<path d="M0 0 C0.99 0.33 1.98 0.66 3 1 C3.495 4.465 3.495 4.465 4 8 C3.33254761 7.02317261 3.33254761 7.02317261 2.65161133 6.02661133 C-1.44590731 2.89490133 -5.40731022 3.48505881 -10.42578125 3.57421875 C-11.95721016 3.57915092 -11.95721016 3.57915092 -13.51957703 3.58418274 C-16.78431375 3.59993514 -20.04802808 3.64398012 -23.3125 3.6875 C-25.49934057 3.6989918 -27.68619082 3.70877682 -29.87304688 3.71679688 C-31.97396875 3.73022997 -34.07488172 3.74515541 -36.17578125 3.76171875 C-37.15517166 3.76910568 -38.13456207 3.77649261 -39.14363098 3.78410339 C-44.19205196 3.85396341 -49.02228592 4.14477148 -54 5 C-53.67 3.68 -53.34 2.36 -53 1 C-52.35076065 1.00222061 -51.7015213 1.00444122 -51.03260803 1.00672913 C-44.30112252 1.02878002 -37.56964719 1.04390577 -30.83813477 1.05493164 C-28.32283105 1.05997363 -25.80753028 1.06680703 -23.29223633 1.07543945 C-19.68570225 1.08751094 -16.07920677 1.09322949 -12.47265625 1.09765625 C-11.34038101 1.10281754 -10.20810577 1.10797882 -9.04151917 1.11329651 C-8.00051559 1.11337204 -6.95951202 1.11344757 -5.88696289 1.11352539 C-4.96540909 1.115746 -4.04385529 1.11796661 -3.09437561 1.12025452 C-1.01191638 1.2337198 -1.01191638 1.2337198 0 0 Z " fill="#2E2E30" transform="translate(762,164)"/>
<path d="M0 0 C1.1875 1.5625 1.1875 1.5625 2 4 C1.53158691 4.9995874 1.06317383 5.9991748 0.58056641 7.02905273 C-1.50362158 11.63014938 -1.45856105 15.98622687 -1.4765625 20.97265625 C-1.49214203 21.93159286 -1.50772156 22.89052948 -1.52377319 23.87852478 C-1.57104226 26.93984018 -1.59887209 30.00093796 -1.625 33.0625 C-1.67421924 37.0534676 -1.73123531 41.04430522 -1.7890625 45.03515625 C-1.8018927 46.0161026 -1.8147229 46.99704895 -1.82794189 48.00772095 C-1.98123391 58.34963144 -2.46533141 68.67175225 -3 79 C-3.33 79 -3.66 79 -4 79 C-4.07004999 71.02764383 -4.12308645 63.05541999 -4.15543652 55.08283043 C-4.17097659 51.37932707 -4.1919963 47.67603694 -4.22631836 43.97265625 C-4.25933477 40.38699934 -4.2769402 36.80154523 -4.28463173 33.21574783 C-4.29273018 31.20759635 -4.31607866 29.19952445 -4.33988953 27.1914978 C-4.3414903 18.288416 -4.06899677 8.13799353 0 0 Z " fill="#5494AD" transform="translate(38,87)"/>
<path d="M0 0 C0 3 0 3 -1.9375 5.8125 C-4.05065596 9.07828648 -4.55793547 11.19824507 -5 15 C-5.33 15.33 -5.66 15.66 -6 16 C-5.85763916 16.84062988 -5.71527832 17.68125977 -5.56860352 18.54736328 C-4.92236734 22.4713959 -4.87450732 26.28018098 -4.90234375 30.2421875 C-4.9037587 31.01055939 -4.90517365 31.77893127 -4.90663147 32.57058716 C-4.91219317 35.00543239 -4.9247384 37.44018294 -4.9375 39.875 C-4.94251996 41.53385283 -4.94708199 43.19270712 -4.95117188 44.8515625 C-4.96215002 48.9010777 -4.97938794 52.95052284 -5 57 C-5.66 57 -6.32 57 -7 57 C-6.99476318 56.21761963 -6.98952637 55.43523926 -6.98413086 54.62915039 C-6.96342894 51.10694167 -6.95036162 47.5847457 -6.9375 44.0625 C-6.92912109 42.83080078 -6.92074219 41.59910156 -6.91210938 40.33007812 C-6.90888672 39.16025391 -6.90566406 37.99042969 -6.90234375 36.78515625 C-6.89710693 35.70113525 -6.89187012 34.61711426 -6.88647461 33.50024414 C-6.71573103 31.05950052 -6.71573103 31.05950052 -8 30 C-8.07271741 27.64686445 -8.08370868 25.29166332 -8.0625 22.9375 C-8.05347656 21.64714844 -8.04445312 20.35679688 -8.03515625 19.02734375 C-8.02355469 18.02832031 -8.01195312 17.02929688 -8 16 C-8.99 16 -9.98 16 -11 16 C-9.66534338 12.22959506 -7.99723337 9.42875097 -5.5 6.3125 C-4.8915625 5.54550781 -4.283125 4.77851562 -3.65625 3.98828125 C-2 2 -2 2 0 0 Z " fill="#89C6E3" transform="translate(50,71)"/>
<path d="M0 0 C2.31 0 4.62 0 7 0 C7.05395478 1.62463842 7.09277195 3.24978541 7.125 4.875 C7.14820313 5.77992188 7.17140625 6.68484375 7.1953125 7.6171875 C7 10 7 10 5 12 C3.01315308 12.24050903 3.01315308 12.24050903 0.55029297 12.22705078 C-0.37051056 12.22689972 -1.29131409 12.22674866 -2.24002075 12.22659302 C-3.23589203 12.21627045 -4.23176331 12.20594788 -5.2578125 12.1953125 C-6.27600067 12.1924826 -7.29418884 12.18965271 -8.3432312 12.18673706 C-11.603939 12.1755177 -14.86437484 12.15040996 -18.125 12.125 C-20.33202729 12.11497247 -22.53905888 12.10584623 -24.74609375 12.09765625 C-30.16415572 12.07557268 -35.58205843 12.04207795 -41 12 C-41.33 11.34 -41.66 10.68 -42 10 C-19.23 9.505 -19.23 9.505 4 9 C4 7.02 4 5.04 4 3 C2.11922127 1.08743288 2.11922127 1.08743288 0 0 Z " fill="#3A3A3C" transform="translate(791,205)"/>
<path d="M0 0 C0.33 0 0.66 0 1 0 C1.00364563 1.19603348 1.00729126 2.39206696 1.01104736 3.62434387 C1.04794657 14.88142411 1.10566345 26.13822951 1.18390274 37.39510059 C1.2234562 43.18276436 1.25560604 48.97027418 1.27099609 54.75805664 C1.28611086 60.34087326 1.32046401 65.92326687 1.36830902 71.50589561 C1.3831764 73.63856014 1.39104406 75.77128505 1.39188385 77.90400124 C1.39423916 80.88543731 1.4212027 83.86569059 1.45410156 86.84692383 C1.4490712 87.7338089 1.44404083 88.62069397 1.43885803 89.53445435 C1.38995221 94.31271011 1.38995221 94.31271011 4.03411865 98.07206726 C5.00722992 98.53139397 5.00722992 98.53139397 6 99 C4.68 100.65 3.36 102.3 2 104 C1.34 103.67 0.68 103.34 0 103 C0 69.01 0 35.02 0 0 Z " fill="#90C8E5" transform="translate(44,128)"/>
<path d="M0 0 C3.875 2.625 3.875 2.625 5 6 C5.99 6.33 6.98 6.66 8 7 C8 7.66 8 8.32 8 9 C8.99 9.33 9.98 9.66 11 10 C11 10.66 11 11.32 11 12 C-10.12 12 -31.24 12 -53 12 C-53.33 11.34 -53.66 10.68 -54 10 C-35.63152162 9.87041989 -17.35143875 10.12556825 1 11 C1 8.36 1 5.72 1 3 C0.34 3 -0.32 3 -1 3 C-0.67 2.01 -0.34 1.02 0 0 Z " fill="#0D4A83" transform="translate(239,253)"/>
<path d="M0 0 C0.99 0.495 0.99 0.495 2 1 C2 9.58 2 18.16 2 27 C2.66 27.33 3.32 27.66 4 28 C4.625 30.0625 4.625 30.0625 5 32 C5.66 32 6.32 32 7 32 C7 32.66 7 33.32 7 34 C16.9 34.66 26.8 35.32 37 36 C37 36.33 37 36.66 37 37 C32.62512669 37.08738991 28.25047922 37.140524 23.875 37.1875 C22.6375 37.21263672 21.4 37.23777344 20.125 37.26367188 C18.92617188 37.27333984 17.72734375 37.28300781 16.4921875 37.29296875 C15.39245605 37.3086792 14.29272461 37.32438965 13.15966797 37.34057617 C8.67509372 36.85719021 5.28179845 35.37019834 2.1875 32.0625 C-0.09410648 28.0997098 -0.11979727 24.4386427 -0.09765625 19.921875 C-0.09443359 18.76171875 -0.09121094 17.6015625 -0.08789062 16.40625 C-0.07951172 15.1996875 -0.07113281 13.993125 -0.0625 12.75 C-0.05798828 11.52796875 -0.05347656 10.3059375 -0.04882812 9.046875 C-0.03704815 6.03120054 -0.02059853 3.01562502 0 0 Z " fill="#38383C" transform="translate(693,230)"/>
<path d="M0 0 C0.33 0 0.66 0 1 0 C1 18.81 1 37.62 1 57 C0.34 56.67 -0.32 56.34 -1 56 C-2.44800869 50.51024126 -2.05018674 44.86420489 -1.9140625 39.23828125 C-1.89282318 38.21067184 -1.87158386 37.18306244 -1.84970093 36.12431335 C-1.80358045 33.96001275 -1.75466456 31.79577013 -1.703125 29.6315918 C-1.62502964 26.31375916 -1.55798476 22.99583123 -1.4921875 19.67773438 C-1.445971 17.5729021 -1.39911802 15.46808369 -1.3515625 13.36328125 C-1.33171295 12.36951981 -1.3118634 11.37575836 -1.29141235 10.35188293 C-1.26823944 9.43050034 -1.24506653 8.50911774 -1.22119141 7.55981445 C-1.20263092 6.74962357 -1.18407043 5.93943268 -1.16494751 5.10469055 C-1 3 -1 3 0 0 Z " fill="#3E3E3E" transform="translate(635,198)"/>
<path d="M0 0 C0.33 0 0.66 0 1 0 C2.37405496 18.0933953 1.92477672 36.16302255 1.60510254 54.28619385 C1.53333272 58.43681292 1.46917516 62.58754975 1.40429688 66.73828125 C1.27680476 74.82565152 1.14114 82.91285643 1 91 C0.67 91 0.34 91 0 91 C-0.0154612 89.76091385 -0.0154612 89.76091385 -0.03123474 88.49679565 C-0.12935068 80.69904087 -0.23188472 72.90135925 -0.33933926 65.10372734 C-0.39442339 61.09522012 -0.44781949 57.08670544 -0.49731445 53.078125 C-0.5451729 49.20717425 -0.59752217 45.33630755 -0.65294075 41.46545792 C-0.67326737 39.99116239 -0.69199586 38.51684391 -0.70907402 37.04250717 C-0.7333341 34.97210174 -0.76335697 32.90185201 -0.79467773 30.83154297 C-0.81022202 29.65461884 -0.8257663 28.4776947 -0.84178162 27.2651062 C-0.93570133 23.9688096 -0.93570133 23.9688096 -1.57533264 20.63552856 C-1.71547287 19.76580414 -1.8556131 18.89607971 -2 18 C-1.67 17.67 -1.34 17.34 -1 17 C-0.76298761 14.14122091 -0.57780818 11.30116703 -0.4375 8.4375 C-0.39431641 7.63119141 -0.35113281 6.82488281 -0.30664062 5.99414062 C-0.20024738 3.99631195 -0.09959112 1.9981793 0 0 Z M-2 91 C0 92 0 92 0 92 Z " fill="#74C1DE" transform="translate(41,88)"/>
<path d="M0 0 C1 1 1 1 1.1328125 2.99609375 C1.13023437 3.80175781 1.12765625 4.60742188 1.125 5.4375 C1.12886719 6.64212891 1.12886719 6.64212891 1.1328125 7.87109375 C1 10 1 10 0 12 C-5.61 12 -11.22 12 -17 12 C-17.33 20.91 -17.66 29.82 -18 39 C-18.33 39 -18.66 39 -19 39 C-19.02891546 34.54168018 -19.04676981 30.08338431 -19.0625 25.625 C-19.07087891 24.35398438 -19.07925781 23.08296875 -19.08789062 21.7734375 C-19.09111328 20.56171875 -19.09433594 19.35 -19.09765625 18.1015625 C-19.10289307 16.98088379 -19.10812988 15.86020508 -19.11352539 14.70556641 C-19 12 -19 12 -18 10 C-12.39 10 -6.78 10 -1 10 C-1.33 8.02 -1.66 6.04 -2 4 C-1.67 3.34 -1.34 2.68 -1 2 C-4.63 2 -8.26 2 -12 2 C-12 1.67 -12 1.34 -12 1 C-7.94726192 0.01751804 -4.16464926 -0.16017882 0 0 Z " fill="#373737" transform="translate(543,170)"/>
<path d="M0 0 C4.80998295 1.51609219 7.9736906 4.229562 11.6875 7.5 C12.30036865 8.03318848 12.9132373 8.56637695 13.54467773 9.11572266 C20.88952201 15.56752135 27.93172677 22.31352058 34 30 C33.67 30.66 33.34 31.32 33 32 C30.21340573 29.29536439 27.63404498 26.57878834 25.1875 23.5625 C22.35664498 20.17730001 19.17093236 17.74417661 15.5390625 15.26171875 C15.03117188 14.84535156 14.52328125 14.42898437 14 14 C14 13.34 14 12.68 14 12 C13.443125 11.731875 12.88625 11.46375 12.3125 11.1875 C10 10 10 10 7.4375 8.375 C5.03094021 6.75433941 5.03094021 6.75433941 2 7 C0.5393715 4.35261084 0 3.10551666 0 0 Z " fill="#103353" transform="translate(159,152)"/>
<path d="M0 0 C0.99 0.33 1.98 0.66 3 1 C2.67 1.66 2.34 2.32 2 3 C1.91472372 5.03232634 1.89283865 7.06747006 1.90234375 9.1015625 C1.90556641 10.31328125 1.90878906 11.525 1.91210938 12.7734375 C1.92048828 14.04445312 1.92886719 15.31546875 1.9375 16.625 C1.94201172 17.90375 1.94652344 19.1825 1.95117188 20.5 C1.96298797 23.66671292 1.97946185 26.83333356 2 30 C2.66 30.33 3.32 30.66 4 31 C3.505 32.485 3.505 32.485 3 34 C3.66 34 4.32 34 5 34 C5.33 35.32 5.66 36.64 6 38 C7.4540625 38.185625 7.4540625 38.185625 8.9375 38.375 C9.948125 38.58125 10.95875 38.7875 12 39 C12.33 39.66 12.66 40.32 13 41 C11.55989519 40.74337755 10.1229313 40.46909179 8.6875 40.1875 C7.88699219 40.03667969 7.08648437 39.88585937 6.26171875 39.73046875 C3.70960726 38.90621167 2.64683212 38.09274359 1 36 C-0.18975795 32.43072615 -0.12478155 29.20053028 -0.09765625 25.48828125 C-0.0962413 24.76005661 -0.09482635 24.03183197 -0.09336853 23.28153992 C-0.08777659 20.95848461 -0.07522562 18.63552612 -0.0625 16.3125 C-0.05748396 14.73632952 -0.05292123 13.16015752 -0.04882812 11.58398438 C-0.0378098 7.72261902 -0.02055074 3.86132592 0 0 Z " fill="#3D3D3E" transform="translate(441,226)"/>
<path d="M0 0 C0 0.99 0 1.98 0 3 C-0.84304687 3.12117188 -1.68609375 3.24234375 -2.5546875 3.3671875 C-3.65039062 3.53476562 -4.74609375 3.70234375 -5.875 3.875 C-7.51082031 4.11863281 -7.51082031 4.11863281 -9.1796875 4.3671875 C-12.11932714 4.76256513 -12.11932714 4.76256513 -14 7 C-14.680625 7.309375 -15.36125 7.61875 -16.0625 7.9375 C-18.34565884 8.90403542 -18.34565884 8.90403542 -19 12 C-20.32 11.67 -21.64 11.34 -23 11 C-23 10.01 -23 9.02 -23 8 C-24.98 8.66 -26.96 9.32 -29 10 C-29.33 9.34 -29.66 8.68 -30 8 C-27.3349556 7.03694987 -24.66811249 6.07948284 -22 5.125 C-21.25621094 4.85558594 -20.51242188 4.58617187 -19.74609375 4.30859375 C-6.51832036 -0.40739502 -6.51832036 -0.40739502 0 0 Z " fill="#A2C8D9" transform="translate(97,52)"/>
<path d="M0 0 C0.89721507 2.46046096 1.17742086 3.57791658 0.14453125 6.03515625 C-2.24482765 9.67174648 -4.23319223 12.66198138 -8 15 C-10.26019898 16.82537104 -10.26019898 16.82537104 -10.1875 19.5 C-10.15898977 21.99790956 -10.15898977 21.99790956 -9 24 C-10.6875 24.6875 -10.6875 24.6875 -13 25 C-15.75 23.75 -15.75 23.75 -18 22 C-18 21.01 -18 20.02 -18 19 C-16.05859375 17.2734375 -16.05859375 17.2734375 -13.4375 15.375 C-7.92132205 11.14384078 -3.13984346 6.27968693 0 0 Z " fill="#3E3E3E" transform="translate(563,211)"/>
<path d="M0 0 C2.1640625 0.9296875 2.1640625 0.9296875 4 2 C-0.14518318 10.57259159 -0.14518318 10.57259159 -3.75 12.375 C-4.4925 12.58125 -5.235 12.7875 -6 13 C-6.33 13.99 -6.66 14.98 -7 16 C-8.98 16.33 -10.96 16.66 -13 17 C-12.38125 16.649375 -11.7625 16.29875 -11.125 15.9375 C-8.22873607 13.29678877 -7.92236932 10.7553608 -7 7 C-5.93248987 4.04381809 -5.13218052 3.10435304 -2.625 1.125 C-1.325625 0.568125 -1.325625 0.568125 0 0 Z " fill="#3CB3D4" transform="translate(217,112)"/>
<path d="M0 0 C10.24714829 8.57414449 10.24714829 8.57414449 14 13 C14 13.66 14 14.32 14 15 C-1.18 14.67 -16.36 14.34 -32 14 C-32 13.67 -32 13.34 -32 13 C-18.14 13 -4.28 13 10 13 C9.01 12.01 8.02 11.02 7 10 C7 9.34 7 8.68 7 8 C5.68 7.67 4.36 7.34 3 7 C3 6.01 3 5.02 3 4 C2.01 3.67 1.02 3.34 0 3 C0 2.01 0 1.02 0 0 Z " fill="#073969" transform="translate(240,252)"/>
<path d="M0 0 C1.485 0.99 1.485 0.99 3 2 C3.06698336 3.90902584 3.11472275 5.82176711 3.0390625 7.73046875 C2.99989047 10.00636355 3.20361897 12.12010108 3.5 14.375 C4.10504253 19.25794891 4.09231753 24.08665576 4 29 C3.34 29 2.68 29 2 29 C-0.20971003 22.79715256 -0.23565619 17.10398302 -0.125 10.5625 C-0.11597656 9.54478516 -0.10695312 8.52707031 -0.09765625 7.47851562 C-0.07424698 4.98542844 -0.041457 2.49284141 0 0 Z " fill="#54A2BB" transform="translate(34,226)"/>
<path d="M0 0 C7.13718184 0.49221944 11.01311307 2.17456642 16.3125 7.1875 C18.65703657 11.09506095 18.82482594 14.51116475 19 19 C19.07734375 20.17369141 19.07734375 20.17369141 19.15625 21.37109375 C19.35791128 26.35380785 18.79804261 29.69531906 16 34 C15.01 34.495 15.01 34.495 14 35 C14.33 34.13375 14.66 33.2675 15 32.375 C17.02103323 25.18422234 17.41631038 16.28067524 14.5 9.3125 C12.37914997 5.78026578 9.85354731 4.58474931 5.97265625 3.453125 C2.50279567 2.64390649 2.50279567 2.64390649 -1 2 C-0.67 1.34 -0.34 0.68 0 0 Z " fill="#373738" transform="translate(456,163)"/>
<path d="M0 0 C0.66 0 1.32 0 2 0 C2.04940499 5.64166991 2.08572193 11.28321413 2.10986328 16.92504883 C2.11992639 18.84466749 2.13357816 20.76427081 2.15087891 22.68383789 C2.17511364 25.44160752 2.18647992 28.19917464 2.1953125 30.95703125 C2.20563507 31.81649857 2.21595764 32.67596588 2.22659302 33.56147766 C2.22674408 34.36208115 2.22689514 35.16268463 2.22705078 35.98754883 C2.231492 36.6914827 2.23593323 37.39541656 2.24050903 38.12068176 C2 40 2 40 0 43 C-1.03060771 38.01005425 -1.05448354 33.37532958 -0.87890625 28.3203125 C-0.85529526 27.50754852 -0.83168427 26.69478455 -0.80735779 25.85739136 C-0.73122314 23.27972728 -0.64698527 20.70240253 -0.5625 18.125 C-0.50922895 16.36980787 -0.45648895 14.61459954 -0.40429688 12.859375 C-0.27567661 8.57270472 -0.13979197 4.28631991 0 0 Z " fill="#39393B" transform="translate(371,141)"/>
<path d="M0 0 C0.33 0.99 0.66 1.98 1 3 C-8.41002278 13.55808656 -8.41002278 13.55808656 -13 18 C-14.35384615 11.72307692 -14.35384615 11.72307692 -12.5625 8.0625 C-12.046875 7.381875 -11.53125 6.70125 -11 6 C-10.67 6.66 -10.34 7.32 -10 8 C-7.9837767 7.28436734 -7.9837767 7.28436734 -6 6 C-5.19471111 3.94999129 -5.19471111 3.94999129 -5 2 C-4.360625 1.855625 -3.72125 1.71125 -3.0625 1.5625 C-1.02454854 1.18992819 -1.02454854 1.18992819 0 0 Z " fill="#AFD2E9" transform="translate(70,197)"/>
<path d="M0 0 C0.66 0.33 1.32 0.66 2 1 C2 5.33333333 2 9.66666667 2 14 C2.92254274 15.74624161 3.85792539 17.48843317 4.890625 19.171875 C6 21 6 21 7.5 24.0625 C11.38868635 28.63170646 16.58419182 30.59865109 22 33 C22 33.33 22 33.66 22 34 C15.51477955 33.72978248 11.64787668 31.49703281 7 27 C1.81726076 20.90198672 -1.24428612 14.53434406 -0.88671875 6.43359375 C-0.66097365 4.28059194 -0.33937105 2.13803763 0 0 Z " fill="#383839" transform="translate(425,178)"/>
<path d="M0 0 C4.1147694 1.3715898 4.96810688 4.11291429 6.875 7.75 C10.26982058 14.21760285 13.86549409 19.17167909 20.5 22.6875 C21.27214844 23.09742188 22.04429687 23.50734375 22.83984375 23.9296875 C25.18242385 25.09038722 27.53535682 26.12544919 30 27 C25.81268839 28.39577054 23.65884332 27.17147558 19.6953125 25.484375 C9.95990714 20.12284741 3.86248718 10.13229195 0 0 Z M28 25 C30 26 30 26 30 26 Z " fill="#39393A" transform="translate(579,208)"/>
<path d="M0 0 C0.96012826 2.54117779 1.1679763 3.61344366 0.06640625 6.1484375 C-4.41982443 12.79038941 -9.96360337 18.88515878 -18 21 C-21.3125 21.125 -21.3125 21.125 -24 21 C-21.48571578 19.32381052 -19.31940014 18.22011912 -16.5625 17.0625 C-11.96167397 15.04651523 -11.96167397 15.04651523 -8 12 C-7.67 11.01 -7.34 10.02 -7 9 C-5.66666667 7.66666667 -4.33333333 6.33333333 -3 5 C-2.67 4.01 -2.34 3.02 -2 2 C-1.34 2 -0.68 2 0 2 C0 1.34 0 0.68 0 0 Z " fill="#373739" transform="translate(489,192)"/>
<path d="M0 0 C0.66 0.66 1.32 1.32 2 2 C1.49215549 3.86209654 0.98223071 5.72365481 0.4609375 7.58203125 C-0.8089355 14.24348366 0.26611374 21.33002456 4 27 C6.06167261 29.31418291 6.06167261 29.31418291 8 31 C3.70917714 30.5232419 1.67464645 28.23772992 -1 25 C-3.58902284 18.8356599 -4.2583661 11.21152585 -2.32421875 4.73828125 C-1.5 2.8125 -1.5 2.8125 0 0 Z " fill="#3B3B3C" transform="translate(443,171)"/>
<path d="M0 0 C2.90369122 2.5830382 5.30158422 5.50376632 7.6875 8.5625 C8.28949219 9.32691406 8.89148438 10.09132812 9.51171875 10.87890625 C11 13 11 13 12 16 C11.01 16.33 10.02 16.66 9 17 C5.96938234 14.97958823 5.27760233 14.24314437 4 11 C4 10.01 4 9.02 4 8 C3.34 8 2.68 8 2 8 C1.34 7.01 0.68 6.02 0 5 C-0.99 4.67 -1.98 4.34 -3 4 C-3.33 3.01 -3.66 2.02 -4 1 C-2.25 0.25 -2.25 0.25 0 0 Z " fill="#164672" transform="translate(228,236)"/>
<path d="M0 0 C0.66 0.66 1.32 1.32 2 2 C-6.63990827 4.63287146 -15.04586479 6.75363686 -24 8 C-24 7.34 -24 6.68 -24 6 C-6.31598916 -0.58753388 -6.31598916 -0.58753388 0 0 Z " fill="#499FBD" transform="translate(166,142)"/>
<path d="M0 0 C6.05900705 2.46628858 12.25960261 7.64486372 15.4765625 13.34765625 C15.71117187 13.91355469 15.94578125 14.47945312 16.1875 15.0625 C11.1714064 12.5544532 8.03439729 10.12266991 4.64453125 5.6484375 C0.9463664 1.62308917 -3.64356448 1.47273298 -8.8125 1.0625 C-9.8025 1.3925 -10.7925 1.7225 -11.8125 2.0625 C-12.1425 1.4025 -12.4725 0.7425 -12.8125 0.0625 C-8.63864239 -2.0244288 -4.37579683 -1.07601561 0 0 Z " fill="#69A5B7" transform="translate(117.8125,35.9375)"/>
<path d="M0 0 C0.99 0.33 1.98 0.66 3 1 C-0.56184227 5.79122518 -4.71455634 9.03587109 -9.44140625 12.62109375 C-12.21856134 15.203212 -13.51987581 17.53640971 -15 21 C-15.66 20.67 -16.32 20.34 -17 20 C-15.57381472 11.85810683 -6.98932892 6.03980116 -1 1 C-0.67 0.67 -0.34 0.34 0 0 Z " fill="#072C51" transform="translate(84,186)"/>
<path d="M0 0 C0.66 0 1.32 0 2 0 C2 0.66 2 1.32 2 2 C2.66 2 3.32 2 4 2 C3.67 2.66 3.34 3.32 3 4 C-12.18 3.67 -27.36 3.34 -43 3 C-43 2.67 -43 2.34 -43 2 C-41.73293213 1.97494385 -40.46586426 1.9498877 -39.16040039 1.92407227 C-34.47702221 1.83018004 -29.7937987 1.72991565 -25.1105957 1.62768555 C-23.08035896 1.58426759 -21.05008408 1.54259774 -19.01977539 1.50268555 C-16.10811849 1.44514854 -13.19665486 1.38140722 -10.28515625 1.31640625 C-8.91485008 1.29133751 -8.91485008 1.29133751 -7.51686096 1.26576233 C-3.43210684 1.5769315 -3.43210684 1.5769315 0 0 Z " fill="#404041" transform="translate(730,214)"/>
<path d="M0 0 C0.33 0 0.66 0 1 0 C0.38921651 7.45155855 0.38921651 7.45155855 -1.375 9.9375 C-4.4552207 11.95149045 -7.12232171 12.11416925 -10.6875 12.0625 C-11.89986328 12.04896484 -11.89986328 12.04896484 -13.13671875 12.03515625 C-14.05904297 12.01775391 -14.05904297 12.01775391 -15 12 C-15.33 11.01 -15.66 10.02 -16 9 C-15.32453125 9.01160156 -14.6490625 9.02320313 -13.953125 9.03515625 C-13.06109375 9.04417969 -12.1690625 9.05320313 -11.25 9.0625 C-10.36828125 9.07410156 -9.4865625 9.08570313 -8.578125 9.09765625 C-6.2181162 9.00826198 -4.25501476 8.66912821 -2 8 C-2.226875 7.4225 -2.45375 6.845 -2.6875 6.25 C-3 4 -3 4 -1.625 1.75 C-1.08875 1.1725 -0.5525 0.595 0 0 Z " fill="#3A3A3A" transform="translate(525,215)"/>
<path d="M0 0 C5.12782839 4.50627344 8.68159947 10.06130626 12 16 C12 16.66 12 17.32 12 18 C11.01 17.67 10.02 17.34 9 17 C9 16.34 9 15.68 9 15 C8.38125 14.814375 7.7625 14.62875 7.125 14.4375 C3.97444756 12.30624394 3.95771769 9.57547939 3 6 C2.01 5.34 1.02 4.68 0 4 C0 2.68 0 1.36 0 0 Z " fill="#173D62" transform="translate(198,190)"/>
<path d="M0 0 C0 3 0 3 -1.9375 5.8125 C-4.03963056 9.06124723 -4.63785124 11.19743801 -5 15 C-6.98 15.33 -8.96 15.66 -11 16 C-9.66534338 12.22959506 -7.99723337 9.42875097 -5.5 6.3125 C-4.8915625 5.54550781 -4.283125 4.77851562 -3.65625 3.98828125 C-2 2 -2 2 0 0 Z " fill="#98B3C6" transform="translate(50,71)"/>
<path d="M0 0 C6.95365789 1.78559482 12.87314903 4.2558133 19 8 C16.41150579 9.2942471 15.29019914 8.81710662 12.5 8.1875 C11.7059375 8.01605469 10.911875 7.84460938 10.09375 7.66796875 C8 7 8 7 6 5 C5.34 4.87625 4.68 4.7525 4 4.625 C2 4 2 4 0.875 1.9609375 C0.58625 1.31382813 0.2975 0.66671875 0 0 Z " fill="#4DA3BB" transform="translate(169,60)"/>
<path d="M0 0 C2.42622466 2.42622466 3.21500413 4.63526937 4.5 7.8125 C4.9228125 8.85019531 5.345625 9.88789063 5.78125 10.95703125 C6.1834375 11.96121094 6.585625 12.96539062 7 14 C7.3815625 14.95261719 7.763125 15.90523437 8.15625 16.88671875 C8.4346875 17.58410156 8.713125 18.28148437 9 19 C8.01 18.67 7.02 18.34 6 18 C6 17.01 6 16.02 6 15 C5.34 14.67 4.68 14.34 4 14 C2.97784597 12.24317275 1.95804552 10.48399924 1 8.69140625 C-0.00834563 6.8257777 -0.00834563 6.8257777 -2 5 C-1.34 3.35 -0.68 1.7 0 0 Z " fill="#3F3F3F" transform="translate(590,200)"/>
<path d="M0 0 C0 0.99 0 1.98 0 3 C-1.670625 3.433125 -1.670625 3.433125 -3.375 3.875 C-7.00291092 4.69241329 -7.00291092 4.69241329 -9 7 C-9.66 6.67 -10.32 6.34 -11 6 C-11 6.66 -11 7.32 -11 8 C-13.64 8.66 -16.28 9.32 -19 10 C-13.74357749 4.08652467 -7.90592747 0.49412047 0 0 Z " fill="#B8D0DB" transform="translate(72,60)"/>
<path d="M0 0 C0.66 0 1.32 0 2 0 C1.25 4.75 1.25 4.75 -1 7 C-3.6015625 7.4140625 -3.6015625 7.4140625 -6.625 7.625 C-7.62789063 7.69976562 -8.63078125 7.77453125 -9.6640625 7.8515625 C-10.82035156 7.92503906 -10.82035156 7.92503906 -12 8 C-12 6.68 -12 5.36 -12 4 C-8.7 4 -5.4 4 -2 4 C-1.34 2.68 -0.68 1.36 0 0 Z " fill="#3A3A3A" transform="translate(370,258)"/>
<path d="M0 0 C0.66 0.99 1.32 1.98 2 3 C1.01 3.66 0.02 4.32 -1 5 C-2.05104383 6.63495707 -3.05988318 8.29883624 -4 10 C-3.34 10 -2.68 10 -2 10 C-2.33 10.99 -2.66 11.98 -3 13 C-4.8125 13.625 -4.8125 13.625 -7 14 C-8.33489745 14.32701327 -9.66849245 14.65944671 -11 15 C-7.59445921 9.73369981 -4.12331138 4.7296807 0 0 Z " fill="#113359" transform="translate(66,204)"/>
<path d="M0 0 C10.24714829 8.57414449 10.24714829 8.57414449 14 13 C14 13.66 14 14.32 14 15 C12.68 15 11.36 15 10 15 C9.87625 14.360625 9.7525 13.72125 9.625 13.0625 C9.41875 12.381875 9.2125 11.70125 9 11 C8.34 10.67 7.68 10.34 7 10 C7 9.34 7 8.68 7 8 C5.68 7.67 4.36 7.34 3 7 C3 6.01 3 5.02 3 4 C2.01 3.67 1.02 3.34 0 3 C0 2.01 0 1.02 0 0 Z " fill="#153F66" transform="translate(240,252)"/>
<path d="M0 0 C0.928125 0.2784375 0.928125 0.2784375 1.875 0.5625 C4.04160178 1.23686176 4.04160178 1.23686176 6 0 C6.99 0.99 7.98 1.98 9 3 C6.03 4.65 3.06 6.3 0 8 C-0.66 7.34 -1.32 6.68 -2 6 C-1.34 4.02 -0.68 2.04 0 0 Z " fill="#3FB1D4" transform="translate(193,128)"/>
<path d="M0 0 C0 0.99 0 1.98 0 3 C-11.52164009 5.48063781 -11.52164009 5.48063781 -17 4 C-11.88643979 1.01708988 -5.89517358 -0.36844835 0 0 Z " fill="#87B1C2" transform="translate(97,52)"/>
<path d="M0 0 C0.66 0 1.32 0 2 0 C2 5.61 2 11.22 2 17 C0 16 0 16 -1 13 C-0.91382274 10.767731 -0.76077759 8.53761514 -0.5625 6.3125 C-0.46066406 5.13300781 -0.35882813 3.95351562 -0.25390625 2.73828125 C-0.17011719 1.83464844 -0.08632813 0.93101562 0 0 Z " fill="#42B9D4" transform="translate(35,160)"/>
<path d="M0 0 C0.66 0.33 1.32 0.66 2 1 C0.61772023 6.989879 -2.83874514 11.58357385 -7 16 C-7.66 16 -8.32 16 -9 16 C-9 15.34 -9 14.68 -9 14 C-8.34 14 -7.68 14 -7 14 C-6.773125 13.175 -6.54625 12.35 -6.3125 11.5 C-4.72573768 7.26863382 -2.49251763 3.74828987 0 0 Z " fill="#39393A" transform="translate(577,208)"/>
<path d="M0 0 C0.66 0 1.32 0 2 0 C2.33 0.99 2.66 1.98 3 3 C1.37660195 4.70884005 -0.29319053 6.37446717 -2 8 C-2.66 8 -3.32 8 -4 8 C-4.33 8.99 -4.66 9.98 -5 11 C-6.98 11.33 -8.96 11.66 -11 12 C-10.360625 11.566875 -9.72125 11.13375 -9.0625 10.6875 C-6.73253997 9.08760823 -6.73253997 9.08760823 -6 6 C-4.35 5.67 -2.7 5.34 -1 5 C-1.33 4.01 -1.66 3.02 -2 2 C-1.34 1.34 -0.68 0.68 0 0 Z " fill="#40ADCC" transform="translate(215,117)"/>
<path d="M0 0 C1.60879422 0.39842559 3.21198173 0.81953157 4.8125 1.25 C5.70582031 1.48203125 6.59914062 1.7140625 7.51953125 1.953125 C10.37646099 3.15888432 11.38369034 4.40101703 13 7 C12.236875 6.835 11.47375 6.67 10.6875 6.5 C7.96403764 5.90854604 7.96403764 5.90854604 5 6 C4.34 5.34 3.68 4.68 3 4 C0.39719432 4.32041397 0.39719432 4.32041397 -2 5 C-2 4.01 -2 3.02 -2 2 C-1.34 2 -0.68 2 0 2 C0 1.34 0 0.68 0 0 Z " fill="#3FB3CF" transform="translate(178,66)"/>
<path d="M0 0 C-1.32 0.33 -2.64 0.66 -4 1 C-4 1.66 -4 2.32 -4 3 C-9.29230769 6.07692308 -9.29230769 6.07692308 -12.875 5.6875 C-13.57625 5.460625 -14.2775 5.23375 -15 5 C-14.34 4.34 -13.68 3.68 -13 3 C-12.01 3 -11.02 3 -10 3 C-10 2.01 -10 1.02 -10 0 C-3.375 -1.125 -3.375 -1.125 0 0 Z " fill="#41AFD0" transform="translate(180,137)"/>
<path d="M0 0 C3 1 3 1 5 4 C5.70812814 6.32108669 6.38024152 8.65377147 7 11 C5.35 11 3.7 11 2 11 C2 10.34 2 9.68 2 9 C1.34 8.67 0.68 8.34 0 8 C0.66 6.35 1.32 4.7 2 3 C1.34 3 0.68 3 0 3 C0 2.01 0 1.02 0 0 Z " fill="#3BB1CE" transform="translate(192,77)"/>
<path d="M0 0 C-1.875 4.75 -1.875 4.75 -3 7 C-4.65 6.67 -6.3 6.34 -8 6 C-6.15596224 0.86303767 -5.73213298 0 0 0 Z " fill="#B7DCEF" transform="translate(56,216)"/>
<path d="M0 0 C0.67578125 1.70703125 0.67578125 1.70703125 1 4 C-0.14453125 6.32421875 -0.14453125 6.32421875 -1.8125 8.6875 C-2.62654297 9.86892578 -2.62654297 9.86892578 -3.45703125 11.07421875 C-5 13 -5 13 -7 14 C-7.25 11.75 -7.25 11.75 -7 9 C-5.0625 6.875 -5.0625 6.875 -3 5 C-2.67 4.01 -2.34 3.02 -2 2 C-1.34 2 -0.68 2 0 2 C0 1.34 0 0.68 0 0 Z " fill="#3E3E3F" transform="translate(489,192)"/>
<path d="M0 0 C0.33 0.66 0.66 1.32 1 2 C1.66 2.33 2.32 2.66 3 3 C2.649375 3.61875 2.29875 4.2375 1.9375 4.875 C1.4734375 5.926875 1.4734375 5.926875 1 7 C1.33 7.66 1.66 8.32 2 9 C1.0625 11.625 1.0625 11.625 0 14 C0.66 14.33 1.32 14.66 2 15 C1.01 15.99 0.02 16.98 -1 18 C-1.66 17.67 -2.32 17.34 -3 17 C-2.01 11.39 -1.02 5.78 0 0 Z " fill="#3E3E40" transform="translate(570,183)"/>
<path d="M0 0 C5.01113235 1.4317521 6.94469549 3.98445693 10 8 C8 9 8 9 5.5625 8.3125 C2.74223526 6.86797416 1.57026726 5.7273063 0 3 C0 2.01 0 1.02 0 0 Z " fill="#0A3055" transform="translate(159,152)"/>
<path d="M0 0 C0.99 0.33 1.98 0.66 3 1 C3.33 3.31 3.66 5.62 4 8 C3.29617188 7.03320312 3.29617188 7.03320312 2.578125 6.046875 C-1.17881647 3.06409117 -4.57764827 3.33030605 -9.25 3.25 C-10.09046875 3.22035156 -10.9309375 3.19070312 -11.796875 3.16015625 C-13.8640715 3.08968364 -15.93204033 3.04255061 -18 3 C-18 2.67 -18 2.34 -18 2 C-16.17662109 1.90912109 -16.17662109 1.90912109 -14.31640625 1.81640625 C-12.73175772 1.73201668 -11.14712298 1.6473679 -9.5625 1.5625 C-8.76005859 1.52318359 -7.95761719 1.48386719 -7.13085938 1.44335938 C-3.24760439 1.5945704 -3.24760439 1.5945704 0 0 Z " fill="#343435" transform="translate(762,164)"/>
<path d="M0 0 C0.99 0 1.98 0 3 0 C3 3.96 3 7.92 3 12 C2.01 11.67 1.02 11.34 0 11 C0 7.37 0 3.74 0 0 Z " fill="#3F3F3F" transform="translate(707,144)"/>
<path d="M0 0 C0.66 0.66 1.32 1.32 2 2 C-3.14930205 6.19572759 -7.32277012 7.48561672 -14 7 C-16.4375 6 -16.4375 6 -18 5 C-15.62836097 3.81418049 -14.37527735 3.99105728 -11.75 4.125 C-7.4514033 4.18739898 -4.69855157 3.31159473 -1 1 C-0.67 0.67 -0.34 0.34 0 0 Z " fill="#3C3C3D" transform="translate(469,198)"/>
<path d="M0 0 C1 1 1 1 1.09765625 3.06640625 C1.08605469 3.89011719 1.07445312 4.71382812 1.0625 5.5625 C1.05347656 6.38878906 1.04445313 7.21507812 1.03515625 8.06640625 C1.02355469 8.70449219 1.01195312 9.34257812 1 10 C-1.14720899 7.85279101 -1.5434221 6.92209857 -2 4 C-1.67 3.34 -1.34 2.68 -1 2 C-4.63 2 -8.26 2 -12 2 C-12 1.67 -12 1.34 -12 1 C-7.94726192 0.01751804 -4.16464926 -0.16017882 0 0 Z " fill="#3D3D3D" transform="translate(543,170)"/>
<path d="M0 0 C0.66 0.33 1.32 0.66 2 1 C-2.8634703 6.77881731 -7.09353958 11.76718874 -14 15 C-14 14.34 -14 13.68 -14 13 C-12.37251976 11.61910767 -10.69443347 10.29786393 -9 9 C-7.76301956 7.98864904 -6.53407524 6.96740549 -5.3125 5.9375 C-4.73113281 5.45152344 -4.14976562 4.96554688 -3.55078125 4.46484375 C-1.76036759 2.8831847 -1.76036759 2.8831847 0 0 Z " fill="#4B92A5" transform="translate(222,115)"/>
<path d="M0 0 C2.03120707 3.04681061 2.24659875 3.60118324 2.1953125 7.01171875 C2.18886719 7.76904297 2.18242188 8.52636719 2.17578125 9.30664062 C2.15902344 10.09232422 2.14226563 10.87800781 2.125 11.6875 C2.11597656 12.48478516 2.10695313 13.28207031 2.09765625 14.10351562 C2.07411585 16.069139 2.03824547 18.03460775 2 20 C0.33892039 17.10608786 -0.20209186 15.19688492 0 11.875 C0 10.59625 0 9.3175 0 8 C-0.66 7.34 -1.32 6.68 -2 6 C-1.33333333 4 -0.66666667 2 0 0 Z " fill="#4BB8D8" transform="translate(36,220)"/>
<path d="M0 0 C0.66 0.99 1.32 1.98 2 3 C1.5390625 5.26171875 1.5390625 5.26171875 0.625 7.6875 C0.18027344 8.89986328 0.18027344 8.89986328 -0.2734375 10.13671875 C-0.51320312 10.75160156 -0.75296875 11.36648437 -1 12 C-3 10 -3 10 -3.046875 8.125 C-2.94890625 7.42375 -2.8509375 6.7225 -2.75 6 C-2.66234375 5.29875 -2.5746875 4.5975 -2.484375 3.875 C-2 2 -2 2 0 0 Z " fill="#C9E6F1" transform="translate(59,203)"/>
<path d="M0 0 C0.99 0.33 1.98 0.66 3 1 C3.6875 3.0625 3.6875 3.0625 4 5 C-0.75 9 -0.75 9 -3 9 C-3 7 -3 5 -3 3 C-2.01 3 -1.02 3 0 3 C0 2.01 0 1.02 0 0 Z " fill="#88C4E0" transform="translate(87,176)"/>
<path d="M0 0 C0.33 0 0.66 0 1 0 C0.63605108 7.4002947 0.63605108 7.4002947 -2.1875 10.0625 C-5.54205504 11.18068501 -7.60846163 10.86760284 -11 10 C-11 9.67 -11 9.34 -11 9 C-9.741875 8.814375 -8.48375 8.62875 -7.1875 8.4375 C-4.58129396 7.8147782 -3.36939111 7.52099789 -1.80078125 5.30859375 C-0.87461627 3.16740924 -0.87461627 3.16740924 0 0 Z " fill="#373738" transform="translate(402,256)"/>
<path d="M0 0 C0.66 0 1.32 0 2 0 C1.6875 2.375 1.6875 2.375 1 5 C-2.68717438 7.45811625 -4.64345704 7.31118164 -9 7 C-9.99 6.34 -10.98 5.68 -12 5 C-11.30132813 4.97421875 -10.60265625 4.9484375 -9.8828125 4.921875 C-8.97273437 4.86515625 -8.06265625 4.8084375 -7.125 4.75 C-6.22007812 4.70359375 -5.31515625 4.6571875 -4.3828125 4.609375 C-1.82889456 4.24388852 -1.82889456 4.24388852 -0.6796875 1.953125 C-0.34324219 0.98632812 -0.34324219 0.98632812 0 0 Z " fill="#3A3A3B" transform="translate(634,258)"/>
<path d="M0 0 C2.42945561 3.64418341 2.0828781 4.92923364 1.625 9.1875 C1.51414062 10.27417969 1.40328125 11.36085937 1.2890625 12.48046875 C1.19367187 13.31191406 1.09828125 14.14335937 1 15 C0.34 15 -0.32 15 -1 15 C-1.02685412 12.68756208 -1.04632841 10.3750373 -1.0625 8.0625 C-1.07410156 6.77472656 -1.08570313 5.48695313 -1.09765625 4.16015625 C-1 1 -1 1 0 0 Z " fill="#363636" transform="translate(732,217)"/>
<path d="M0 0 C4.88049925 3.9419417 9.0580583 8.11950075 13 13 C12.67 13.66 12.34 14.32 12 15 C8.94433539 12.03693129 6.02864172 8.98279839 3.1875 5.8125 C2.58292969 5.13832031 1.97835937 4.46414062 1.35546875 3.76953125 C0 2 0 2 0 0 Z " fill="#1D3C5B" transform="translate(180,169)"/>
<path d="M0 0 C6.93 0.495 6.93 0.495 14 1 C13.67 1.66 13.34 2.32 13 3 C9.04 3 5.08 3 1 3 C0.67 2.01 0.34 1.02 0 0 Z " fill="#38383A" transform="translate(448,211)"/>
<path d="M0 0 C0.33 1.32 0.66 2.64 1 4 C3.31 4.66 5.62 5.32 8 6 C4.42355152 7.2380014 1.66305234 6.74926071 -2 6 C-2 4.35 -2 2.7 -2 1 C-1.34 0.67 -0.68 0.34 0 0 Z " fill="#2E2E2F" transform="translate(422,157)"/>
<path d="M0 0 C1.08203125 1.78515625 1.08203125 1.78515625 2 4 C0.6875 7.4375 0.6875 7.4375 -1 11 C-1.69140522 13.77888613 -1.69140522 13.77888613 -2 16 C-2.33 16 -2.66 16 -3 16 C-3.37851209 10.06997733 -2.10575375 5.52760359 0 0 Z " fill="#6BA5B7" transform="translate(38,87)"/>
<path d="M0 0 C3 1.5625 3 1.5625 5 3 C2 4 2 4 -0.4375 3 C-2.89810951 1.74949649 -2.89810951 1.74949649 -5.125 2.5625 C-5.74375 2.706875 -6.3625 2.85125 -7 3 C-8.75 1.5625 -8.75 1.5625 -10 0 C-6.7564763 -1.62176185 -3.42296437 -0.7657492 0 0 Z " fill="#65B6D1" transform="translate(117,37)"/>
<path d="M0 0 C0 0.99 0 1.98 0 3 C-1.86328125 4.640625 -1.86328125 4.640625 -4.3125 6.25 C-5.11300781 6.79140625 -5.91351562 7.3328125 -6.73828125 7.890625 C-9 9 -9 9 -12 8 C-11.319375 7.608125 -10.63875 7.21625 -9.9375 6.8125 C-6.49918664 4.6909875 -3.26998823 2.3723444 0 0 Z " fill="#39393A" transform="translate(567,225)"/>
<path d="M0 0 C2.36280927 2.14800843 3.58340234 4.16680467 5 7 C5.66 7.33 6.32 7.66 7 8 C7 8.66 7 9.32 7 10 C6.01 10.33 5.02 10.66 4 11 C1.9656541 9.58480285 1.09589607 8.45017877 0.578125 6.01953125 C0.33726048 4.01823046 0.16467259 2.0090056 0 0 Z " fill="#104883" transform="translate(200,197)"/>
<path d="M0 0 C0.66 0 1.32 0 2 0 C1.38461538 6.52307692 1.38461538 6.52307692 -0.5625 8.9375 C-1.036875 9.288125 -1.51125 9.63875 -2 10 C-2 7 -2 7 -1 5 C-1.66 4.67 -2.32 4.34 -3 4 C-2.67 3.34 -2.34 2.68 -2 2 C-1.34 2 -0.68 2 0 2 C0 1.34 0 0.68 0 0 Z " fill="#3C3C3C" transform="translate(661,256)"/>
<path d="M0 0 C0.66 0 1.32 0 2 0 C1.3203125 1.953125 1.3203125 1.953125 0 4 C-2.3828125 4.609375 -2.3828125 4.609375 -5.125 4.75 C-6.03507813 4.80671875 -6.94515625 4.8634375 -7.8828125 4.921875 C-8.58148437 4.94765625 -9.28015625 4.9734375 -10 5 C-10 4.34 -10 3.68 -10 3 C-6.83783053 1.1261218 -4.63834261 0.90166642 -1 1 C-0.67 0.67 -0.34 0.34 0 0 Z " fill="#36363D" transform="translate(746,235)"/>
<path d="M0 0 C5.625 -0.25 5.625 -0.25 9 2 C9 2.66 9 3.32 9 4 C7.02 4 5.04 4 3 4 C3 3.34 3 2.68 3 2 C2.34 2 1.68 2 1 2 C0.67 2.66 0.34 3.32 0 4 C0 2.68 0 1.36 0 0 Z " fill="#0B3257" transform="translate(149,148)"/>
<path d="M0 0 C0.66 0.33 1.32 0.66 2 1 C2 3.64 2 6.28 2 9 C1.01 9 0.02 9 -1 9 C-1.125 2.25 -1.125 2.25 0 0 Z " fill="#3A3A3E" transform="translate(708,170)"/>
<path d="M0 0 C-2.35277269 2.72426311 -4.62496331 3.8141763 -8 5 C-7.625 2.5625 -7.625 2.5625 -7 0 C-4.3333581 -1.33332095 -2.83319697 -0.67102033 0 0 Z " fill="#63B1D2" transform="translate(118,161)"/>
<path d="M0 0 C2 3 2 3 2.8125 5.5625 C3.81004016 8.23763772 3.81004016 8.23763772 6.625 9.3125 C7.40875 9.539375 8.1925 9.76625 9 10 C9 10.33 9 10.66 9 11 C6.125 11.125 6.125 11.125 3 11 C0.60236815 8.60236815 0.65719414 7.66726502 0.375 4.375 C0.30023438 3.55773437 0.22546875 2.74046875 0.1484375 1.8984375 C0.09945312 1.27195312 0.05046875 0.64546875 0 0 Z " fill="#589CAD" transform="translate(196,77)"/>
<path d="M0 0 C0.66 0.66 1.32 1.32 2 2 C1.625 5.125 1.625 5.125 1 8 C0.34 8 -0.32 8 -1 8 C-1.66 6.02 -2.32 4.04 -3 2 C-2.01 1.34 -1.02 0.68 0 0 Z " fill="#062B5D" transform="translate(46,237)"/>
<path d="M0 0 C0.66 0 1.32 0 2 0 C2 3.63 2 7.26 2 11 C1.01 11 0.02 11 -1 11 C-0.67 7.37 -0.34 3.74 0 0 Z " fill="#3C3C3C" transform="translate(345,222)"/>
<path d="M0 0 C0.73075648 2.3140622 1.40138258 4.64828869 2 7 C1.34 7 0.68 7 0 7 C-0.66 6.01 -1.32 5.02 -2 4 C-2.99 3.67 -3.98 3.34 -5 3 C-5.33 2.01 -5.66 1.02 -6 0 C-2.25 -1.125 -2.25 -1.125 0 0 Z " fill="#0F4A7B" transform="translate(230,237)"/>
<path d="M0 0 C0.66 0.33 1.32 0.66 2 1 C2 1.66 2 2.32 2 3 C3.98 3.66 5.96 4.32 8 5 C6.3125 6.1875 6.3125 6.1875 4 7 C1.25 5.8125 1.25 5.8125 -1 4 C-1 1 -1 1 0 0 Z " fill="#363636" transform="translate(546,229)"/>
<path d="M0 0 C0.66 0.66 1.32 1.32 2 2 C1.3125 3.9375 1.3125 3.9375 0 6 C-2.625 6.75 -2.625 6.75 -5 7 C-4.67 5.68 -4.34 4.36 -4 3 C-3.01 3 -2.02 3 -1 3 C-0.67 2.01 -0.34 1.02 0 0 Z " fill="#8BBACE" transform="translate(44,80)"/>
<path d="M0 0 C2 1 2 1 3 3 C1.3767313 3.6708712 -0.24867578 4.33657029 -1.875 5 C-3.23238281 5.556875 -3.23238281 5.556875 -4.6171875 6.125 C-7 7 -7 7 -9 7 C-9 6.34 -9 5.68 -9 5 C-8.43410156 4.72285156 -7.86820313 4.44570312 -7.28515625 4.16015625 C-6.55167969 3.79792969 -5.81820312 3.43570313 -5.0625 3.0625 C-3.96615234 2.52302734 -3.96615234 2.52302734 -2.84765625 1.97265625 C-1.03750973 1.13628173 -1.03750973 1.13628173 0 0 Z " fill="#56ABD0" transform="translate(139,148)"/>
<path d="M0 0 C4.75481646 0.57634139 7.97048212 2.55068521 12 5 C9.30234372 6.34882814 7.84835666 5.80338265 5 5 C4.67 4.34 4.34 3.68 4 3 C1.98330173 1.86649466 1.98330173 1.86649466 0 1 C0 0.67 0 0.34 0 0 Z " fill="#57A0AF" transform="translate(176,63)"/>
<path d="M0 0 C0.66 0.33 1.32 0.66 2 1 C1.01 2.485 1.01 2.485 0 4 C-0.66 4 -1.32 4 -2 4 C-2 7.63 -2 11.26 -2 15 C-2.66 14.67 -3.32 14.34 -4 14 C-3.91276622 12.22825181 -3.80458345 10.45752623 -3.6875 8.6875 C-3.62949219 7.70136719 -3.57148437 6.71523438 -3.51171875 5.69921875 C-2.95377187 2.75615543 -2.31459868 1.81817001 0 0 Z " fill="#7CA6B6" transform="translate(102,37)"/>
<path d="M0 0 C0.33 1.98 0.66 3.96 1 6 C-2.26954202 5.43628586 -3.82575883 4.50037734 -6 2 C-3 0 -3 0 0 0 Z " fill="#073261" transform="translate(46,256)"/>
<path d="M0 0 C0.66 0 1.32 0 2 0 C1.95875 0.763125 1.9175 1.52625 1.875 2.3125 C1.77919176 5.22718416 1.77919176 5.22718416 4 8 C3.67 8.66 3.34 9.32 3 10 C2.01 10 1.02 10 0 10 C0 6.7 0 3.4 0 0 Z " fill="#76BCDD" transform="translate(40,229)"/>
<path d="M0 0 C2.94721162 2.74395564 5.19168608 5.38337216 7 9 C6.67 9.66 6.34 10.32 6 11 C2.1334716 7.777893 1.11940982 4.85077588 0 0 Z " fill="#1A3E61" transform="translate(218,221)"/>
<path d="M0 0 C2.31 0 4.62 0 7 0 C7 1.98 7 3.96 7 6 C4.2805761 4.18705073 2.25740623 2.33524782 0 0 Z " fill="#3C3C3C" transform="translate(791,205)"/>
<path d="M0 0 C0.33 1.32 0.66 2.64 1 4 C0.34 4 -0.32 4 -1 4 C-1.33 6.64 -1.66 9.28 -2 12 C-3.1875 10.4375 -3.1875 10.4375 -4 8 C-1.78947368 1.78947368 -1.78947368 1.78947368 0 0 Z " fill="#B6D6E5" transform="translate(52,70)"/>
<path d="M0 0 C0.66 0.33 1.32 0.66 2 1 C2 1.66 2 2.32 2 3 C2.99 3.33 3.98 3.66 5 4 C4.67 4.99 4.34 5.98 4 7 C2.02 6.01 0.04 5.02 -2 4 C-1.34 2.68 -0.68 1.36 0 0 Z " fill="#5AB8D2" transform="translate(122,41)"/>
<path d="M0 0 C0.33 0.66 0.66 1.32 1 2 C3.11327425 2.90725434 3.11327425 2.90725434 5.5625 3.625 C6.38878906 3.88539063 7.21507812 4.14578125 8.06640625 4.4140625 C9.02353516 4.70410156 9.02353516 4.70410156 10 5 C10 5.33 10 5.66 10 6 C3.539801 6.36567164 3.539801 6.36567164 1.0625 4.6875 C0 3 0 3 0 0 Z " fill="#383838" transform="translate(294,227)"/>
<path d="M0 0 C2 2 2 2 2 5 C1.01 5 0.02 5 -1 5 C-0.67 3.35 -0.34 1.7 0 0 Z M-5 5 C-3.68 5 -2.36 5 -1 5 C-1.33 5.66 -1.66 6.32 -2 7 C-3.32 6.67 -4.64 6.34 -6 6 C-5.67 5.67 -5.34 5.34 -5 5 Z " fill="#3F3F41" transform="translate(388,177)"/>
<path d="M0 0 C0.66 0.33 1.32 0.66 2 1 C-0.875 7.75 -0.875 7.75 -2 10 C-2.66 9.67 -3.32 9.34 -4 9 C-2.68 6.03 -1.36 3.06 0 0 Z " fill="#353537" transform="translate(429,167)"/>
<path d="M0 0 C3.46941546 0.45822468 6.67395049 0.89131683 10 2 C10.6875 4.0625 10.6875 4.0625 11 6 C9.72791378 5.37755401 8.45738118 4.75193233 7.1875 4.125 C6.47980469 3.77695313 5.77210938 3.42890625 5.04296875 3.0703125 C3 2 3 2 0 0 Z " fill="#45A9C6" transform="translate(214,94)"/>
<path d="M0 0 C0.66 0 1.32 0 2 0 C2.33 2.31 2.66 4.62 3 7 C2.01 7.66 1.02 8.32 0 9 C0 6.03 0 3.06 0 0 Z " fill="#89C4E4" transform="translate(43,227)"/>
<path d="M0 0 C0.6875 1.75 0.6875 1.75 1 4 C-0.4375 6.25 -0.4375 6.25 -2 8 C-2.99 7.67 -3.98 7.34 -5 7 C-4.54625 6.401875 -4.0925 5.80375 -3.625 5.1875 C-2.36704087 3.49409348 -1.17015276 1.75522914 0 0 Z " fill="#383838" transform="translate(780,182)"/>
<path d="M0 0 C2.31 0 4.62 0 7 0 C5 3 5 3 2.875 3.6875 C1.946875 3.8421875 1.946875 3.8421875 1 4 C0.67 2.68 0.34 1.36 0 0 Z " fill="#96C4D6" transform="translate(78,56)"/>
<path d="M0 0 C0.66 0.99 1.32 1.98 2 3 C1.01 3.66 0.02 4.32 -1 5 C-1.33 5.99 -1.66 6.98 -2 8 C-2.99 8 -3.98 8 -5 8 C-3.62845496 5.04590299 -2.01136276 2.55991624 0 0 Z " fill="#183B61" transform="translate(66,204)"/>
<path d="M0 0 C4.95 0.99 4.95 0.99 10 2 C10 2.33 10 2.66 10 3 C7.03 3 4.06 3 1 3 C0.67 2.01 0.34 1.02 0 0 Z " fill="#58A1B5" transform="translate(150,54)"/>
<path d="M0 0 C1.65 0.99 3.3 1.98 5 3 C4.67 3.66 4.34 4.32 4 5 C2.35 4.67 0.7 4.34 -1 4 C-0.67 2.68 -0.34 1.36 0 0 Z " fill="#55B2CF" transform="translate(129,48)"/>
<path d="M0 0 C1.98 0.99 1.98 0.99 4 2 C4 2.66 4 3.32 4 4 C2.68 4 1.36 4 0 4 C0 2.68 0 1.36 0 0 Z M-1 4 C-0.67 4.99 -0.34 5.98 0 7 C-0.99 7.495 -0.99 7.495 -2 8 C-1.67 6.68 -1.34 5.36 -1 4 Z " fill="#7EBED7" transform="translate(103,36)"/>
<path d="M0 0 C2.62187494 1.04874998 3.79371361 1.64931313 5.25 4.125 C5.4975 4.74375 5.745 5.3625 6 6 C4.68 6 3.36 6 2 6 C1.34 4.02 0.68 2.04 0 0 Z " fill="#2A4564" transform="translate(248,261)"/>
<path d="M0 0 C-0.33 0.99 -0.66 1.98 -1 3 C-1.66 3 -2.32 3 -3 3 C-3.33 3.66 -3.66 4.32 -4 5 C-4.99 5 -5.98 5 -7 5 C-7 4.34 -7 3.68 -7 3 C-2.61538462 0 -2.61538462 0 0 0 Z " fill="#09355E" transform="translate(105,171)"/>
<path d="M0 0 C0.66 0.66 1.32 1.32 2 2 C1.01 3.485 1.01 3.485 0 5 C-1.32 4.34 -2.64 3.68 -4 3 C-3 1 -3 1 0 0 Z " fill="#022A57" transform="translate(118,163)"/>
<path d="M0 0 C0.66 0.66 1.32 1.32 2 2 C1.01 3.32 0.02 4.64 -1 6 C-2.32 5.67 -3.64 5.34 -5 5 C-4.01 4.67 -3.02 4.34 -2 4 C-2 3.34 -2 2.68 -2 2 C-1.34 2 -0.68 2 0 2 C0 1.34 0 0.68 0 0 Z " fill="#373737" transform="translate(606,153)"/>
<path d="M0 0 C1.25541557 3.76624671 0.37061958 5.37188934 -1 9 C-1.66 8.34 -2.32 7.68 -3 7 C-1.125 1.125 -1.125 1.125 0 0 Z " fill="#9ED1E4" transform="translate(48,75)"/>
</svg>
