<svg width="36" height="36" viewBox="0 0 36 36" fill="none" xmlns="http://www.w3.org/2000/svg">
<circle cx="18" cy="18" r="18" fill="white"/>
<path d="M13.3193 18.652H15.4893V27.6774C15.4893 27.8556 15.6322 28 15.8086 28H19.4879C19.6643 28 19.8072 27.8556 19.8072 27.6774V18.6945H22.3018C22.464 18.6945 22.6004 18.5715 22.619 18.4088L22.9978 15.0861C23.0082 14.9946 22.9796 14.9031 22.919 14.8345C22.8584 14.7659 22.7717 14.7266 22.6807 14.7266H19.8073V12.6437C19.8073 12.0159 20.1419 11.6975 20.802 11.6975C20.896 11.6975 22.6807 11.6975 22.6807 11.6975C22.8571 11.6975 23 11.553 23 11.3749V8.32497C23 8.14677 22.8571 8.00239 22.6807 8.00239H20.0915C20.0733 8.00148 20.0327 8 19.973 8C19.5237 8 17.9622 8.0891 16.7287 9.23555C15.362 10.506 15.5519 12.0272 15.5973 12.2909V14.7265H13.3193C13.1429 14.7265 13 14.8709 13 15.0491V18.3294C13 18.5075 13.1429 18.652 13.3193 18.652Z" fill="#E6282D"/>
</svg>
