<svg width="20" height="20" viewBox="0 0 20 20" fill="none" xmlns="http://www.w3.org/2000/svg">
<circle cx="10" cy="10" r="9.5" fill="white" stroke="#888888"/>
<path d="M9.24641 11.8851C9.25837 10.2554 9.7488 9.75676 10.5742 9.24595C11.0706 8.94189 11.4474 8.45541 11.4474 7.77432C11.4474 6.9473 10.8134 6.41824 10.0239 6.42432C9.34211 6.41824 8.65431 6.83176 8.58852 7.83514H7.5C7.55981 6.35743 8.65431 5.5 10.0239 5.5C11.5251 5.5 12.5 6.47905 12.5 7.82297C12.5 8.7777 12.0574 9.44054 11.3158 9.9027C10.5682 10.3649 10.299 10.8331 10.2751 11.8851V11.9459H9.24641V11.8851ZM9.0311 13.7095C9.01914 13.2838 9.37799 12.9311 9.79665 12.9311C10.2213 12.9311 10.5682 13.2838 10.5622 13.7095C10.5682 14.1412 10.2213 14.4939 9.79665 14.5C9.37799 14.4939 9.01914 14.1412 9.0311 13.7095Z" fill="#888888"/>
</svg>
