<svg width="22" height="22" viewBox="0 0 22 22" fill="none" xmlns="http://www.w3.org/2000/svg">
<g clip-path="url(#clip0_1320_6945)">
<path d="M17.05 8.79998C19.173 8.79998 20.9 7.07298 20.9 4.94998C20.9 2.82698 19.173 1.09998 17.05 1.09998C14.927 1.09998 13.2 2.82698 13.2 4.94998C13.2 5.43398 13.299 5.89598 13.464 6.33598L8.19499 8.41498C7.51299 7.33698 6.31399 6.61098 4.93899 6.61098C2.81599 6.61098 1.08899 8.33798 1.08899 10.461C1.08899 12.584 2.81599 14.311 4.93899 14.311C5.95099 14.311 6.86399 13.915 7.54599 13.277L11.264 15.631C11.088 16.071 10.989 16.555 10.989 17.061C10.989 19.184 12.716 20.911 14.839 20.911C16.962 20.911 18.689 19.184 18.689 17.061C18.689 14.938 16.962 13.211 14.839 13.211C13.618 13.211 12.529 13.794 11.825 14.685L8.23899 12.408C8.57999 11.836 8.78899 11.176 8.78899 10.45C8.78899 10.087 8.72299 9.74598 8.63499 9.41598L14.014 7.29298C14.718 8.20598 15.807 8.79998 17.05 8.79998ZM14.85 14.3C16.368 14.3 17.6 15.532 17.6 17.05C17.6 18.568 16.368 19.8 14.85 19.8C13.332 19.8 12.1 18.568 12.1 17.05C12.1 15.532 13.332 14.3 14.85 14.3ZM4.94999 13.2C3.43199 13.2 2.19999 11.968 2.19999 10.45C2.19999 8.93198 3.43199 7.69998 4.94999 7.69998C6.46799 7.69998 7.69999 8.93198 7.69999 10.45C7.69999 11.968 6.46799 13.2 4.94999 13.2ZM17.05 2.19998C18.568 2.19998 19.8 3.43198 19.8 4.94998C19.8 6.46798 18.568 7.69998 17.05 7.69998C15.532 7.69998 14.3 6.46798 14.3 4.94998C14.3 3.43198 15.532 2.19998 17.05 2.19998Z" fill="#888888"/>
</g>
<defs>
<clipPath id="clip0_1320_6945">
<rect width="22" height="22" fill="white"/>
</clipPath>
</defs>
</svg>
