<svg width="36" height="36" viewBox="0 0 36 36" fill="none" xmlns="http://www.w3.org/2000/svg">
<circle cx="18" cy="18" r="18" fill="white"/>
<path d="M18 13.3846C17.0872 13.3846 16.1948 13.6553 15.4358 14.1624C14.6768 14.6696 14.0853 15.3904 13.7359 16.2338C13.3866 17.0771 13.2952 18.0051 13.4733 18.9004C13.6514 19.7957 14.091 20.6181 14.7364 21.2636C15.3819 21.909 16.2043 22.3486 17.0996 22.5267C17.9949 22.7048 18.9229 22.6134 19.7662 22.2641C20.6096 21.9147 21.3304 21.3232 21.8376 20.5642C22.3447 19.8052 22.6154 18.9128 22.6154 18C22.6141 16.7763 22.1274 15.6031 21.2622 14.7378C20.3969 13.8726 19.2237 13.3859 18 13.3846ZM18 21.0769C17.3914 21.0769 16.7966 20.8965 16.2906 20.5584C15.7846 20.2203 15.3902 19.7397 15.1573 19.1775C14.9244 18.6153 14.8635 17.9966 14.9822 17.3997C15.1009 16.8029 15.394 16.2546 15.8243 15.8243C16.2546 15.394 16.8029 15.1009 17.3997 14.9822C17.9966 14.8635 18.6153 14.9244 19.1775 15.1573C19.7397 15.3902 20.2203 15.7846 20.5584 16.2906C20.8965 16.7966 21.0769 17.3914 21.0769 18C21.0769 18.8161 20.7527 19.5987 20.1757 20.1757C19.5987 20.7527 18.8161 21.0769 18 21.0769ZM22.6154 8H13.3846C11.957 8.00153 10.5883 8.56932 9.5788 9.5788C8.56932 10.5883 8.00153 11.957 8 13.3846V22.6154C8.00153 24.043 8.56932 25.4117 9.5788 26.4212C10.5883 27.4307 11.957 27.9985 13.3846 28H22.6154C24.043 27.9985 25.4117 27.4307 26.4212 26.4212C27.4307 25.4117 27.9985 24.043 28 22.6154V13.3846C27.9985 11.957 27.4307 10.5883 26.4212 9.5788C25.4117 8.56932 24.043 8.00153 22.6154 8ZM26.4615 22.6154C26.4615 23.6354 26.0563 24.6137 25.335 25.335C24.6137 26.0563 23.6354 26.4615 22.6154 26.4615H13.3846C12.3646 26.4615 11.3863 26.0563 10.665 25.335C9.94368 24.6137 9.53846 23.6354 9.53846 22.6154V13.3846C9.53846 12.3646 9.94368 11.3863 10.665 10.665C11.3863 9.94368 12.3646 9.53846 13.3846 9.53846H22.6154C23.6354 9.53846 24.6137 9.94368 25.335 10.665C26.0563 11.3863 26.4615 12.3646 26.4615 13.3846V22.6154ZM24.1538 13C24.1538 13.2282 24.0862 13.4513 23.9594 13.641C23.8326 13.8308 23.6524 13.9787 23.4416 14.066C23.2307 14.1533 22.9987 14.1762 22.7749 14.1317C22.5511 14.0872 22.3455 13.9773 22.1841 13.8159C22.0227 13.6545 21.9128 13.4489 21.8683 13.2251C21.8238 13.0013 21.8467 12.7693 21.934 12.5584C22.0213 12.3476 22.1692 12.1674 22.359 12.0406C22.5487 11.9138 22.7718 11.8462 23 11.8462C23.306 11.8462 23.5995 11.9677 23.8159 12.1841C24.0323 12.4005 24.1538 12.694 24.1538 13Z" fill="#E6282D"/>
</svg>
