<svg width="22" height="22" viewBox="0 0 22 22" fill="none" xmlns="http://www.w3.org/2000/svg">
<g clip-path="url(#clip0_971_3578)">
<path d="M10.9997 19.25C10.9997 19.25 1.83301 14 1.83301 7.62501C1.83301 6.49802 2.21479 5.40585 2.91341 4.53431C3.61203 3.66277 4.58432 3.0657 5.66485 2.84468C6.74539 2.62366 7.86743 2.79235 8.84007 3.32204C9.8127 3.85174 10.5759 4.70972 10.9997 5.75001C11.4235 4.70972 12.1866 3.85174 13.1593 3.32204C14.1319 2.79235 15.254 2.62366 16.3345 2.84468C17.415 3.0657 18.3873 3.66277 19.0859 4.53431C19.7846 5.40585 20.1663 6.49802 20.1663 7.62501C20.1663 14 10.9997 19.25 10.9997 19.25Z" stroke="#888888" stroke-linecap="round" stroke-linejoin="round"/>
</g>
<defs>
<clipPath id="clip0_971_3578">
<rect width="22" height="22" fill="white"/>
</clipPath>
</defs>
</svg>
