<svg width="42" height="43" viewBox="0 0 42 43" fill="none" xmlns="http://www.w3.org/2000/svg">
<circle cx="21" cy="21.5" r="21" fill="#E6282D"/>
<g clip-path="url(#clip0_945_1231)">
<path d="M13.3567 8.7168H11.8696L14.2635 23.6572L14.2734 23.7199H14.6394L13.3567 8.7168Z" fill="white"/>
<path d="M18.1046 23.7199L17.3594 8.78604L17.3561 8.7168H15.8657L17.7419 23.7199H18.1046Z" fill="white"/>
<path d="M20.8169 23.7199H21.1796L21.7435 8.7168H20.2563L20.8136 23.6473L20.8169 23.7199Z" fill="white"/>
<path d="M26.1359 8.7168H24.6488L23.897 23.7199H24.263L26.1359 8.7168Z" fill="white"/>
<path d="M27.7259 24.8848H14.2759V25.9729H27.7259V24.8848Z" fill="white"/>
<path d="M27.3723 23.6407L27.3657 23.7199H27.7284L30.1322 8.7168H28.6451L27.3723 23.6407Z" fill="white"/>
<path d="M23.2034 27.6936C24.4893 27.6936 25.739 27.8453 26.8173 28.1354L26.8964 27.9211C25.528 27.2715 23.7046 26.9121 21.7558 26.9121C17.7627 26.9121 14.5181 28.4487 14.5181 30.3414C14.5181 32.2341 17.766 33.7707 21.7558 33.7707C23.7046 33.7707 25.528 33.4112 26.8964 32.7617L26.8173 32.5473C25.739 32.8375 24.4893 32.9892 23.2034 32.9892C19.5729 32.9892 16.6185 31.8021 16.6185 30.3414C16.6185 28.8806 19.5729 27.6936 23.2034 27.6936Z" fill="white"/>
</g>
<defs>
<clipPath id="clip0_945_1231">
<rect width="18.2609" height="25.0502" fill="white" transform="translate(11.8696 8.7168)"/>
</clipPath>
</defs>
</svg>
