<svg width="23" height="22" viewBox="0 0 23 22" fill="none" xmlns="http://www.w3.org/2000/svg">
<g clip-path="url(#clip0_2309_63587)">
<path d="M11.8847 11C12.9725 11 14.0359 10.6774 14.9403 10.0731C15.8448 9.46874 16.5498 8.60976 16.966 7.60476C17.3823 6.59977 17.4912 5.4939 17.279 4.42701C17.0668 3.36011 16.543 2.3801 15.7738 1.61092C15.0046 0.841727 14.0246 0.317902 12.9577 0.105683C11.8908 -0.106535 10.7849 0.00238307 9.77994 0.418665C8.77495 0.834947 7.91597 1.5399 7.31162 2.44437C6.70727 3.34884 6.3847 4.41221 6.3847 5.5C6.3847 6.95869 6.96416 8.35764 7.99561 9.38909C9.02706 10.4205 10.426 11 11.8847 11ZM15.5514 5.5C15.5514 6.2252 15.3363 6.93411 14.9334 7.53709C14.5305 8.14007 13.9579 8.61004 13.2879 8.88756C12.6179 9.16508 11.8806 9.23769 11.1694 9.09622C10.4581 8.95474 9.80477 8.60552 9.29198 8.09273C8.77918 7.57994 8.42997 6.9266 8.28849 6.21533C8.14701 5.50407 8.21962 4.76683 8.49714 4.09683C8.77466 3.42683 9.24463 2.85418 9.84761 2.45128C10.4506 2.04838 11.1595 1.83334 11.8847 1.83334C12.8572 1.83334 13.7898 2.21964 14.4774 2.90728C15.1651 3.59491 15.5514 4.52754 15.5514 5.5ZM22.8847 20.1667C22.89 20.4089 22.8461 20.6496 22.7558 20.8744C22.6656 21.0992 22.5307 21.3034 22.3594 21.4747C22.1881 21.646 21.9839 21.7809 21.7591 21.8712C21.5343 21.9614 21.2936 22.0053 21.0514 22H2.71803C2.47584 22.0053 2.23508 21.9614 2.01028 21.8712C1.78547 21.7809 1.58127 21.646 1.40997 21.4747C1.23867 21.3034 1.10382 21.0992 1.01355 20.8744C0.923277 20.6496 0.879446 20.4089 0.884699 20.1667C0.884699 18.3333 2.71803 12.8333 11.8847 12.8333C21.0514 12.8333 22.8847 18.3333 22.8847 20.1667ZM21.0514 20.1667C20.9248 18.9999 20.3835 17.9173 19.526 17.116C18.4807 16.2177 17.2659 15.5382 15.9534 15.1175C14.6409 14.6968 13.2574 14.5435 11.8847 14.6667C10.5125 14.5424 9.12922 14.6945 7.81675 15.1139C6.50428 15.5333 5.28922 16.2116 4.24337 17.1087C3.38513 17.9125 2.84388 18.9976 2.71803 20.1667H21.0514Z" fill="white"/>
</g>
<defs>
<clipPath id="clip0_2309_63587">
<rect width="22" height="22" fill="white" transform="translate(0.884521)"/>
</clipPath>
</defs>
</svg>
