<svg width="20" height="22" viewBox="0 0 20 22" fill="none" xmlns="http://www.w3.org/2000/svg">
<g clip-path="url(#clip0_2309_63589)">
<path d="M9.64661 0V11.1497H11.2394V0H9.64661Z" fill="white"/>
<path d="M2.47889 12.4427C2.47867 11.0203 2.85941 9.62382 3.58153 8.39835C4.30364 7.17288 5.34079 6.16317 6.58518 5.47415L5.81266 4.08203C3.96583 5.10473 2.50959 6.71014 1.67129 8.64765C0.832992 10.5852 0.659808 12.7457 1.17878 14.792C1.69774 16.8383 2.87965 18.6552 4.54 19.959C6.20034 21.2628 8.24566 21.9802 10.3567 21.9992C12.4677 22.0181 14.5255 21.3375 16.209 20.0637C17.8925 18.7899 19.1068 16.9945 19.6624 14.9579C20.218 12.9212 20.0836 10.7579 19.2802 8.80565C18.4768 6.85341 17.0496 5.22212 15.2214 4.16645L14.425 5.54424C15.6357 6.2432 16.641 7.24852 17.34 8.45915C18.039 9.66978 18.407 11.0431 18.4071 12.441C18.4071 13.8389 18.0392 15.2122 17.3403 16.4229C16.6415 17.6336 15.6362 18.639 14.4256 19.3381C13.215 20.0372 11.8418 20.4053 10.4438 20.4054C9.04592 20.4056 7.67257 20.0378 6.46184 19.339C5.2511 18.6402 4.24564 17.635 3.54648 16.4244C2.84733 15.2139 2.47914 13.8407 2.47889 12.4427Z" fill="white"/>
</g>
<defs>
<clipPath id="clip0_2309_63589">
<rect width="19.1154" height="22" fill="white" transform="translate(0.884521)"/>
</clipPath>
</defs>
</svg>
